<svg version="1.1" id="Layer_1" xmlns="http://www.w3.org/2000/svg" xmlns:xlink="http://www.w3.org/1999/xlink" x="0px" y="0px"
	 width="100%" viewBox="0 0 559 554" enable-background="new 0 0 559 554" xml:space="preserve">
<path fill="#E6F3F2" opacity="1.000000" stroke="none" 
	d="
M313.000000,555.000000 
	C208.689972,555.000000 104.879951,555.000000 1.034961,555.000000 
	C1.034961,370.398102 1.034961,185.796188 1.034961,1.097140 
	C187.226700,1.097140 373.453461,1.097140 559.840088,1.097140 
	C559.840088,185.666550 559.840088,370.333252 559.840088,555.000000 
	C477.796143,555.000000 395.648071,555.000000 313.000000,555.000000 
M237.919250,418.687561 
	C248.664627,420.452972 259.352844,423.097107 270.167267,423.800720 
	C292.597687,425.260071 314.842499,423.117493 336.449554,416.582214 
	C343.183685,414.545441 349.579285,411.389496 356.797150,408.875580 
	C357.937500,408.298462 359.077881,407.721344 360.949768,407.115143 
	C361.584503,406.922638 362.255341,406.806641 362.848785,406.526611 
	C388.379883,394.479401 410.519440,377.882782 428.259888,355.925720 
	C463.712036,312.047150 477.609192,261.986145 469.019806,206.152740 
	C462.009308,160.582672 440.575104,122.641441 405.421600,92.913979 
	C359.040100,53.691551 305.239655,39.778088 246.006973,51.543865 
	C186.787186,63.307083 142.965698,97.416817 115.196365,151.033234 
	C95.751961,188.576065 90.472519,228.705353 98.120689,270.292328 
	C104.725845,306.207855 120.671638,337.559540 145.644211,364.290863 
	C160.801895,380.516022 178.054428,394.117767 198.038010,403.688446 
	C209.499924,409.177856 221.903122,412.701843 234.179138,417.530090 
	C235.113068,417.852631 236.046997,418.175140 237.919250,418.687561 
M165.816360,480.474487 
	C165.918274,485.257416 166.020187,490.040375 166.122101,494.823303 
	C166.829819,494.837097 167.537552,494.850861 168.245285,494.864624 
	C168.553925,493.281067 169.116455,491.699677 169.129730,490.113647 
	C169.211975,480.291687 169.128006,470.468445 169.194427,460.646240 
	C169.216782,457.340485 168.975769,453.889618 169.823242,450.767914 
	C170.960648,446.578369 171.874878,441.527740 177.347931,440.672577 
	C180.686203,440.150940 184.514053,445.274078 184.951477,451.651459 
	C185.712967,462.753662 185.771057,473.902924 186.275177,485.025604 
	C186.338791,486.429108 187.314148,487.791351 187.867050,489.172699 
	C188.517548,487.879395 189.736710,486.582397 189.728241,485.293427 
	C189.662674,475.314880 189.594528,465.324799 189.038193,455.365570 
	C188.729050,449.831421 190.714249,445.601379 194.619080,442.144745 
	C198.390305,438.806305 201.924713,439.309875 203.793518,443.922913 
	C205.379700,447.838409 206.369781,452.214600 206.558197,456.434540 
	C207.055450,467.570435 206.938934,478.732849 207.159729,489.882874 
	C207.193100,491.568054 207.723877,493.243439 208.024567,494.923340 
	C208.610779,494.906036 209.196991,494.888733 209.783188,494.871429 
	C210.096329,493.565521 210.696808,492.255463 210.678085,490.954346 
	C210.496033,478.308685 210.393372,465.656494 209.836716,453.025146 
	C209.680252,449.474640 208.579910,445.766632 207.078278,442.516266 
	C204.019623,435.895721 198.005539,434.715973 192.362946,439.377472 
	C190.441833,440.964569 188.950256,443.071564 187.234039,444.972443 
	C181.148590,435.798981 178.011169,435.007080 170.229889,440.342133 
	C169.206253,439.110413 168.197784,437.896912 167.189331,436.683441 
	C166.731720,438.296936 165.891220,439.907074 165.877197,441.524414 
	C165.767487,454.176361 165.816422,466.829651 165.816360,480.474487 
M248.303711,474.499084 
	C248.932083,481.226898 247.005356,488.241180 250.316101,494.753296 
	C251.471344,493.051666 251.909958,491.372009 251.918671,489.690125 
	C251.979126,478.035950 251.629974,466.367584 252.128433,454.734497 
	C252.296463,450.813141 254.077789,446.733368 255.970642,443.177887 
	C257.843292,439.660400 261.517029,439.440979 263.669708,442.715851 
	C265.769501,445.910339 267.540375,449.861633 267.826263,453.605103 
	C268.635712,464.205475 268.562836,474.871429 268.980042,485.505951 
	C269.028229,486.734924 269.973877,487.928650 270.503448,489.138733 
	C271.120575,488.002960 272.275116,486.865143 272.270905,485.731689 
	C272.232452,475.418884 272.195557,465.097626 271.730988,454.798126 
	C271.470367,449.020416 273.857605,444.843689 278.117340,441.511597 
	C281.202789,439.097992 284.374756,439.566254 285.971039,443.132202 
	C287.497833,446.542786 288.785187,450.336853 288.967560,454.022247 
	C289.559418,465.984589 289.563782,477.975311 289.883698,489.952728 
	C289.928497,491.628937 290.472717,493.291840 290.785767,494.960938 
	C291.340668,494.921387 291.895569,494.881866 292.450470,494.842346 
	C292.703156,493.671295 293.181976,492.498657 293.173737,491.329437 
	C293.086884,479.012085 293.177094,466.684082 292.638428,454.384460 
	C292.454529,450.185608 291.201904,445.798431 289.435272,441.958466 
	C286.710297,436.035614 281.035950,435.018524 275.692047,438.815399 
	C273.419098,440.430328 271.168579,442.076813 269.089783,443.577667 
	C263.405823,435.573944 259.970306,434.846130 252.873215,440.662292 
	C251.851578,439.346008 250.825668,438.024200 249.799759,436.702423 
	C249.300720,438.312561 248.389053,439.917725 248.369492,441.533691 
	C248.240433,452.187622 248.303360,462.843933 248.303711,474.499084 
M342.018127,472.578125 
	C342.018127,469.817230 342.018127,467.056305 342.018127,464.424408 
	C356.035706,462.273041 361.109924,466.277466 362.153107,479.816772 
	C362.459686,483.796295 362.363678,487.806763 362.666412,491.786713 
	C362.734924,492.687469 363.696106,493.520325 364.246399,494.384430 
	C364.831238,493.730713 365.930328,493.072449 365.924622,492.423950 
	C365.820343,480.617035 367.770203,468.082428 355.108582,460.479523 
	C356.012238,459.644775 356.781219,459.004059 357.470520,458.286713 
	C362.546753,453.003815 364.090302,446.308167 361.366486,441.484802 
	C358.760803,436.870575 353.398193,435.364899 345.777618,436.801758 
	C343.694946,437.194489 341.475403,436.861420 339.346252,436.861420 
	C337.273468,443.236053 338.091461,492.110077 341.518463,496.043182 
	C342.444214,487.736237 341.820862,480.613342 342.018127,472.578125 
M320.144653,493.781464 
	C323.173706,490.623047 327.480011,487.981415 329.004272,484.214142 
	C334.712372,470.106232 333.592346,456.098541 325.066711,443.284729 
	C318.838989,433.924622 311.104218,434.272583 305.950684,444.202454 
	C299.399078,456.826202 298.121185,470.264801 302.522400,483.879639 
	C305.303009,492.481262 310.245422,495.139801 320.144653,493.781464 
M215.983597,468.500000 
	C215.984222,475.818909 216.112625,483.141052 215.927429,490.455261 
	C215.844406,493.733643 217.044098,494.908295 220.260040,494.833313 
	C225.578537,494.709229 230.907013,494.984711 236.223663,494.830139 
	C237.582703,494.790680 238.913193,493.769196 240.256805,493.198914 
	C238.918701,492.607574 237.596802,491.553375 236.239655,491.505859 
	C230.692123,491.311615 225.133820,491.424866 219.787552,491.424866 
	C219.787552,482.449127 219.787552,474.524689 219.787552,466.270050 
	C225.249115,466.270050 230.377747,466.386597 235.494461,466.191010 
	C236.833557,466.139801 238.135559,465.118835 239.454605,464.543243 
	C238.081970,464.000641 236.724640,463.041077 235.333939,462.989990 
	C230.218796,462.802094 225.092606,462.915466 219.807251,462.915466 
	C219.807251,455.101318 219.807251,447.725464 219.807251,440.263275 
	C226.314941,440.263275 232.461182,440.329742 238.602478,440.185455 
	C239.440628,440.165771 240.254044,439.094513 241.078934,438.510162 
	C240.352921,437.973541 239.633957,436.981995 238.899826,436.970612 
	C231.456192,436.855438 224.010101,436.900299 215.983597,436.900299 
	C215.983597,447.297974 215.983597,457.398987 215.983597,468.500000 
M380.739471,441.719971 
	C380.523132,441.271423 380.402557,440.729767 380.073273,440.390991 
	C378.872986,439.156006 377.602997,437.988770 376.359283,436.795990 
	C376.534332,438.438660 376.356964,440.220795 376.942780,441.700867 
	C380.240082,450.031067 383.804199,458.256104 387.063690,466.600433 
	C387.660797,468.129059 387.678955,470.144714 387.269653,471.759460 
	C385.679749,478.031494 383.721832,484.210144 382.125397,490.480682 
	C381.840607,491.599335 382.622009,492.989441 382.911102,494.254181 
	C383.688751,493.382050 384.884735,492.632568 385.181702,491.619537 
	C390.177338,474.578491 395.089111,457.512543 399.911530,440.421661 
	C400.266022,439.165405 399.796021,437.676514 399.709351,436.295776 
	C399.077454,436.198242 398.445557,436.100708 397.813660,436.003174 
	C395.194214,444.756470 392.574768,453.509796 389.561340,463.579681 
	C386.333862,455.598022 383.669617,449.009308 380.739471,441.719971 
z"/>
<path fill="#85C4CB" opacity="1.000000" stroke="none" 
	d="
M233.882538,417.110657 
	C221.903122,412.701843 209.499924,409.177856 198.038010,403.688446 
	C178.054428,394.117767 160.801895,380.516022 145.644211,364.290863 
	C120.671638,337.559540 104.725845,306.207855 98.120689,270.292328 
	C90.472519,228.705353 95.751961,188.576065 115.196365,151.033234 
	C142.965698,97.416817 186.787186,63.307083 246.006973,51.543865 
	C305.239655,39.778088 359.040100,53.691551 405.421600,92.913979 
	C440.575104,122.641441 462.009308,160.582672 469.019806,206.152740 
	C477.609192,261.986145 463.712036,312.047150 428.259888,355.925720 
	C410.519440,377.882782 388.379883,394.479401 362.848785,406.526611 
	C362.255341,406.806641 361.584503,406.922638 360.443909,406.722534 
	C358.766388,399.438538 357.428833,392.570496 356.453705,385.651398 
	C353.310760,363.349487 350.964935,340.998016 353.995148,318.475525 
	C354.270782,316.426941 354.970093,314.169464 356.192444,312.553436 
	C381.036346,279.708160 394.903564,242.688965 399.272461,201.827606 
	C407.714355,122.872108 334.354736,59.584908 257.538330,79.753189 
	C197.939468,95.400970 162.024704,154.539993 175.369720,215.221603 
	C176.486145,220.298187 176.258820,224.810715 173.968628,229.652130 
	C166.426498,245.596115 159.280991,261.728149 152.027145,277.807800 
	C149.772995,282.804565 150.335464,284.112366 155.418137,286.044525 
	C161.017273,288.173065 166.586578,290.407562 172.282486,292.243500 
	C175.559830,293.299805 176.190933,295.007660 176.329819,298.380951 
	C176.889664,311.979614 177.431046,325.626282 179.088608,339.118988 
	C180.714905,352.357208 188.788666,360.227142 201.957825,363.624512 
	C216.792618,367.451630 231.562576,367.552246 246.753265,365.618530 
	C247.159729,366.100861 247.335663,366.282318 247.474670,366.847534 
	C242.919342,383.857727 238.400940,400.484192 233.882538,417.110657 
z"/>
<path fill="#FEFEFE" opacity="1.000000" stroke="none" 
	d="
M356.129852,408.745911 
	C349.579285,411.389496 343.183685,414.545441 336.449554,416.582214 
	C314.842499,423.117493 292.597687,425.260071 270.167267,423.800720 
	C259.352844,423.097107 248.664627,420.452972 237.766144,418.366394 
	C242.921936,398.888702 248.230820,379.732208 253.771118,359.740631 
	C251.645218,360.166290 250.721344,360.346344 249.799561,360.536560 
	C231.494736,364.314148 213.343414,364.618103 195.869476,357.012451 
	C192.440887,355.520142 188.938431,352.674133 187.025726,349.511597 
	C181.557220,340.469604 180.937576,330.117096 180.256439,319.276550 
	C182.380249,319.276550 183.999405,319.276520 185.618576,319.276520 
	C193.284454,319.276520 200.951950,319.353790 208.614532,319.194641 
	C209.786728,319.170258 210.936234,318.053772 212.096237,317.442383 
	C210.901932,316.868073 209.758774,316.067810 208.499008,315.782745 
	C207.230927,315.495789 205.846939,315.721588 204.513748,315.721619 
	C196.430969,315.721832 188.348190,315.721741 180.170731,315.721741 
	C180.170731,307.138519 180.170731,299.205231 180.170731,291.191772 
	C171.640289,287.986755 163.273315,284.843201 154.589508,281.580566 
	C162.772324,263.523407 170.866119,245.839203 178.744705,228.059631 
	C179.760269,225.767807 180.240021,222.918076 179.967392,220.436722 
	C179.187225,213.335373 177.352371,206.325867 176.887863,199.217804 
	C174.075256,156.178970 190.268677,121.658318 226.213943,98.085907 
	C262.191498,74.492317 300.553162,73.355209 338.603882,93.380989 
	C378.700439,114.483482 400.325378,157.944077 395.235077,203.247604 
	C390.838257,242.379211 377.273438,277.765289 353.788391,309.399475 
	C351.914154,311.924072 350.284027,315.304169 350.171814,318.346832 
	C349.663361,332.133789 348.842834,346.007568 349.839142,359.726288 
	C351.030579,376.131927 353.955658,392.411621 356.129852,408.745911 
M292.772064,255.191742 
	C293.839447,255.418701 294.906799,255.645660 296.904205,255.920593 
	C315.148102,256.447662 331.714752,251.614410 346.527344,240.769348 
	C375.565521,219.509048 385.922241,178.486221 369.988098,146.246674 
	C369.353241,145.168076 368.718353,144.089478 367.939148,142.321396 
	C346.606873,104.556679 300.639740,91.489433 262.831268,112.656136 
	C254.598206,117.265350 246.813385,122.684380 241.379608,131.579147 
	C239.815292,132.426102 238.008072,133.023575 236.781586,134.217575 
	C236.092850,134.888031 236.364075,136.544601 235.838409,138.386795 
	C228.559433,149.683273 224.637146,162.121460 224.129898,175.473679 
	C223.173492,200.648224 232.397247,221.637131 251.525375,237.965286 
	C263.146088,247.885025 276.590729,254.090942 292.772064,255.191742 
M194.639694,223.912308 
	C203.430374,230.118774 210.932129,229.584045 218.625015,221.858582 
	C220.174042,220.303009 220.871765,217.899704 221.961975,215.887253 
	C220.074142,216.914307 217.859299,217.596802 216.353271,219.026154 
	C208.520966,226.459793 201.220810,226.210098 194.108841,218.008331 
	C193.674713,217.507660 193.402344,216.755524 192.868652,216.477371 
	C191.980789,216.014603 190.942032,215.841354 189.966812,215.546188 
	C189.917023,216.563751 189.445297,217.862534 189.899582,218.544144 
	C191.082581,220.319138 192.671768,221.823410 194.639694,223.912308 
z"/>
<path fill="#262828" opacity="1.000000" stroke="none" 
	d="
M356.463501,408.810730 
	C353.955658,392.411621 351.030579,376.131927 349.839142,359.726288 
	C348.842834,346.007568 349.663361,332.133789 350.171814,318.346832 
	C350.284027,315.304169 351.914154,311.924072 353.788391,309.399475 
	C377.273438,277.765289 390.838257,242.379211 395.235077,203.247604 
	C400.325378,157.944077 378.700439,114.483482 338.603882,93.380989 
	C300.553162,73.355209 262.191498,74.492317 226.213943,98.085907 
	C190.268677,121.658318 174.075256,156.178970 176.887863,199.217804 
	C177.352371,206.325867 179.187225,213.335373 179.967392,220.436722 
	C180.240021,222.918076 179.760269,225.767807 178.744705,228.059631 
	C170.866119,245.839203 162.772324,263.523407 154.589508,281.580566 
	C163.273315,284.843201 171.640289,287.986755 180.170731,291.191772 
	C180.170731,299.205231 180.170731,307.138519 180.170731,315.721741 
	C188.348190,315.721741 196.430969,315.721832 204.513748,315.721619 
	C205.846939,315.721588 207.230927,315.495789 208.499008,315.782745 
	C209.758774,316.067810 210.901932,316.868073 212.096237,317.442383 
	C210.936234,318.053772 209.786728,319.170258 208.614532,319.194641 
	C200.951950,319.353790 193.284454,319.276520 185.618576,319.276520 
	C183.999405,319.276520 182.380249,319.276550 180.256439,319.276550 
	C180.937576,330.117096 181.557220,340.469604 187.025726,349.511597 
	C188.938431,352.674133 192.440887,355.520142 195.869476,357.012451 
	C213.343414,364.618103 231.494736,364.314148 249.799561,360.536560 
	C250.721344,360.346344 251.645218,360.166290 253.771118,359.740631 
	C248.230820,379.732208 242.921936,398.888702 237.296997,418.271423 
	C236.046997,418.175140 235.113068,417.852631 234.030838,417.320374 
	C238.400940,400.484192 242.919342,383.857727 247.604095,366.629211 
	C247.354553,365.790619 246.938644,365.554108 246.522720,365.317596 
	C231.562576,367.552246 216.792618,367.451630 201.957825,363.624512 
	C188.788666,360.227142 180.714905,352.357208 179.088608,339.118988 
	C177.431046,325.626282 176.889664,311.979614 176.329819,298.380951 
	C176.190933,295.007660 175.559830,293.299805 172.282486,292.243500 
	C166.586578,290.407562 161.017273,288.173065 155.418137,286.044525 
	C150.335464,284.112366 149.772995,282.804565 152.027145,277.807800 
	C159.280991,261.728149 166.426498,245.596115 173.968628,229.652130 
	C176.258820,224.810715 176.486145,220.298187 175.369720,215.221603 
	C162.024704,154.539993 197.939468,95.400970 257.538330,79.753189 
	C334.354736,59.584908 407.714355,122.872108 399.272461,201.827606 
	C394.903564,242.688965 381.036346,279.708160 356.192444,312.553436 
	C354.970093,314.169464 354.270782,316.426941 353.995148,318.475525 
	C350.964935,340.998016 353.310760,363.349487 356.453705,385.651398 
	C357.428833,392.570496 358.766388,399.438538 360.078125,406.737122 
	C359.077881,407.721344 357.937500,408.298462 356.463501,408.810730 
z"/>
<path fill="#131515" opacity="1.000000" stroke="none" 
	d="
M165.816376,479.978516 
	C165.816422,466.829651 165.767487,454.176361 165.877197,441.524414 
	C165.891220,439.907074 166.731720,438.296936 167.189331,436.683441 
	C168.197784,437.896912 169.206253,439.110413 170.229889,440.342133 
	C178.011169,435.007080 181.148590,435.798981 187.234039,444.972443 
	C188.950256,443.071564 190.441833,440.964569 192.362946,439.377472 
	C198.005539,434.715973 204.019623,435.895721 207.078278,442.516266 
	C208.579910,445.766632 209.680252,449.474640 209.836716,453.025146 
	C210.393372,465.656494 210.496033,478.308685 210.678085,490.954346 
	C210.696808,492.255463 210.096329,493.565521 209.783188,494.871429 
	C209.196991,494.888733 208.610779,494.906036 208.024567,494.923340 
	C207.723877,493.243439 207.193100,491.568054 207.159729,489.882874 
	C206.938934,478.732849 207.055450,467.570435 206.558197,456.434540 
	C206.369781,452.214600 205.379700,447.838409 203.793518,443.922913 
	C201.924713,439.309875 198.390305,438.806305 194.619080,442.144745 
	C190.714249,445.601379 188.729050,449.831421 189.038193,455.365570 
	C189.594528,465.324799 189.662674,475.314880 189.728241,485.293427 
	C189.736710,486.582397 188.517548,487.879395 187.867065,489.172699 
	C187.314148,487.791351 186.338791,486.429108 186.275177,485.025604 
	C185.771057,473.902924 185.712967,462.753662 184.951477,451.651459 
	C184.514053,445.274078 180.686203,440.150940 177.347931,440.672577 
	C171.874878,441.527740 170.960648,446.578369 169.823242,450.767914 
	C168.975769,453.889618 169.216782,457.340485 169.194427,460.646240 
	C169.128006,470.468445 169.211975,480.291687 169.129730,490.113647 
	C169.116455,491.699677 168.553925,493.281067 168.245285,494.864624 
	C167.537552,494.850861 166.829819,494.837097 166.122101,494.823303 
	C166.020187,490.040375 165.918274,485.257416 165.816376,479.978516 
z"/>
<path fill="#161717" opacity="1.000000" stroke="none" 
	d="
M248.303711,473.999268 
	C248.303360,462.843933 248.240433,452.187622 248.369492,441.533691 
	C248.389053,439.917725 249.300720,438.312561 249.799774,436.702423 
	C250.825668,438.024200 251.851578,439.346008 252.873215,440.662292 
	C259.970306,434.846130 263.405823,435.573944 269.089783,443.577667 
	C271.168579,442.076813 273.419098,440.430328 275.692047,438.815399 
	C281.035950,435.018524 286.710297,436.035614 289.435272,441.958466 
	C291.201904,445.798431 292.454529,450.185608 292.638428,454.384460 
	C293.177094,466.684082 293.086884,479.012085 293.173737,491.329437 
	C293.181976,492.498657 292.703156,493.671295 292.450470,494.842346 
	C291.895569,494.881866 291.340668,494.921387 290.785767,494.960938 
	C290.472717,493.291840 289.928497,491.628937 289.883698,489.952728 
	C289.563782,477.975311 289.559418,465.984589 288.967560,454.022247 
	C288.785187,450.336853 287.497833,446.542786 285.971039,443.132202 
	C284.374756,439.566254 281.202789,439.097992 278.117340,441.511597 
	C273.857605,444.843689 271.470367,449.020416 271.730988,454.798126 
	C272.195557,465.097626 272.232452,475.418884 272.270905,485.731689 
	C272.275116,486.865143 271.120575,488.002960 270.503448,489.138733 
	C269.973877,487.928650 269.028229,486.734924 268.980042,485.505951 
	C268.562836,474.871429 268.635712,464.205475 267.826263,453.605103 
	C267.540375,449.861633 265.769501,445.910339 263.669708,442.715851 
	C261.517029,439.440979 257.843292,439.660400 255.970642,443.177887 
	C254.077789,446.733368 252.296463,450.813141 252.128433,454.734497 
	C251.629974,466.367584 251.979126,478.035950 251.918671,489.690125 
	C251.909958,491.372009 251.471344,493.051666 250.316101,494.753296 
	C247.005356,488.241180 248.932083,481.226898 248.303711,473.999268 
z"/>
<path fill="#1A1C1C" opacity="1.000000" stroke="none" 
	d="
M342.018127,473.067963 
	C341.820862,480.613342 342.444214,487.736237 341.518463,496.043182 
	C338.091461,492.110077 337.273468,443.236053 339.346252,436.861420 
	C341.475403,436.861420 343.694946,437.194489 345.777618,436.801758 
	C353.398193,435.364899 358.760803,436.870575 361.366486,441.484802 
	C364.090302,446.308167 362.546753,453.003815 357.470520,458.286713 
	C356.781219,459.004059 356.012238,459.644775 355.108582,460.479523 
	C367.770203,468.082428 365.820343,480.617035 365.924622,492.423950 
	C365.930328,493.072449 364.831238,493.730713 364.246399,494.384430 
	C363.696106,493.520325 362.734924,492.687469 362.666412,491.786713 
	C362.363678,487.806763 362.459686,483.796295 362.153107,479.816772 
	C361.109924,466.277466 356.035706,462.273041 342.018127,464.424408 
	C342.018127,467.056305 342.018127,469.817230 342.018127,473.067963 
M345.131775,460.193573 
	C352.985260,459.000732 358.670502,453.835815 359.101013,447.502869 
	C359.429962,442.663788 356.833893,440.093109 351.430054,439.906891 
	C344.227081,439.658661 342.026367,441.197327 342.012207,446.509399 
	C342.002472,450.173584 341.857086,453.848572 342.112579,457.494934 
	C342.181335,458.475952 343.493195,459.369873 345.131775,460.193573 
z"/>
<path fill="#141515" opacity="1.000000" stroke="none" 
	d="
M319.773560,493.889160 
	C310.245422,495.139801 305.303009,492.481262 302.522400,483.879639 
	C298.121185,470.264801 299.399078,456.826202 305.950684,444.202454 
	C311.104218,434.272583 318.838989,433.924622 325.066711,443.284729 
	C333.592346,456.098541 334.712372,470.106232 329.004272,484.214142 
	C327.480011,487.981415 323.173706,490.623047 319.773560,493.889160 
M303.721497,471.378937 
	C304.304474,474.970490 304.559113,478.655701 305.550629,482.130676 
	C306.892059,486.832031 309.506226,490.640442 315.077911,490.919403 
	C320.558228,491.193726 323.896423,487.889404 325.726410,483.383209 
	C331.085938,470.185760 329.986298,457.256439 322.249664,445.335876 
	C317.513641,438.038635 312.002655,438.286774 308.940735,446.382324 
	C306.068756,453.975830 305.339203,462.379669 303.721497,471.378937 
z"/>
<path fill="#101111" opacity="1.000000" stroke="none" 
	d="
M215.983597,468.000000 
	C215.983597,457.398987 215.983597,447.297974 215.983597,436.900299 
	C224.010101,436.900299 231.456192,436.855438 238.899826,436.970612 
	C239.633957,436.981995 240.352921,437.973541 241.078918,438.510132 
	C240.254044,439.094513 239.440628,440.165771 238.602478,440.185455 
	C232.461182,440.329742 226.314941,440.263275 219.807251,440.263275 
	C219.807251,447.725464 219.807251,455.101318 219.807251,462.915466 
	C225.092606,462.915466 230.218796,462.802094 235.333939,462.989990 
	C236.724640,463.041077 238.081970,464.000641 239.454605,464.543243 
	C238.135559,465.118835 236.833557,466.139801 235.494461,466.191010 
	C230.377747,466.386597 225.249115,466.270050 219.787552,466.270050 
	C219.787552,474.524689 219.787552,482.449127 219.787552,491.424866 
	C225.133820,491.424866 230.692123,491.311615 236.239655,491.505859 
	C237.596802,491.553375 238.918701,492.607574 240.256805,493.198914 
	C238.913193,493.769196 237.582703,494.790680 236.223663,494.830139 
	C230.907013,494.984711 225.578537,494.709229 220.260040,494.833313 
	C217.044098,494.908295 215.844406,493.733643 215.927429,490.455261 
	C216.112625,483.141052 215.984222,475.818909 215.983597,468.000000 
z"/>
<path fill="#141515" opacity="1.000000" stroke="none" 
	d="
M380.872437,442.070282 
	C383.669617,449.009308 386.333862,455.598022 389.561340,463.579681 
	C392.574768,453.509796 395.194214,444.756470 397.813660,436.003174 
	C398.445557,436.100708 399.077454,436.198242 399.709351,436.295776 
	C399.796021,437.676514 400.266022,439.165405 399.911530,440.421661 
	C395.089111,457.512543 390.177338,474.578491 385.181702,491.619537 
	C384.884735,492.632568 383.688751,493.382050 382.911102,494.254181 
	C382.622009,492.989441 381.840607,491.599335 382.125397,490.480682 
	C383.721832,484.210144 385.679749,478.031494 387.269653,471.759460 
	C387.678955,470.144714 387.660797,468.129059 387.063690,466.600433 
	C383.804199,458.256104 380.240082,450.031067 376.942780,441.700867 
	C376.356964,440.220795 376.534332,438.438660 376.359283,436.795990 
	C377.602997,437.988770 378.872986,439.156006 380.073273,440.390991 
	C380.402557,440.729767 380.523132,441.271423 380.872437,442.070282 
z"/>
<path fill="#84C3C9" opacity="1.000000" stroke="none" 
	d="
M370.090271,146.956329 
	C385.922241,178.486221 375.565521,219.509048 346.527344,240.769348 
	C331.714752,251.614410 315.148102,256.447662 296.486694,255.493652 
	C296.441925,251.510071 296.814667,247.953445 297.199463,244.281876 
	C311.786713,244.481567 324.831909,241.260971 336.826447,232.756134 
	C333.150452,227.161453 329.756256,221.995728 326.326324,216.775574 
	C317.264038,222.210709 308.386963,225.308197 298.732422,224.713913 
	C298.448914,220.126694 298.197998,216.067017 298.025055,211.748016 
	C298.067291,211.311646 298.031525,211.134583 298.004211,210.982544 
	C298.012604,211.007538 297.960602,211.016449 298.285828,210.917496 
	C298.745087,210.199326 298.879089,209.580093 299.015533,208.986023 
	C299.017975,209.011169 298.971771,209.031631 299.328735,208.931473 
	C299.443604,207.547516 299.201477,206.263702 298.986969,204.985519 
	C299.014587,204.991135 298.998230,205.045059 299.038727,204.657166 
	C299.055328,203.499481 299.031433,202.729721 299.014954,201.986542 
	C299.022369,202.013138 298.969421,202.028748 299.346832,201.855743 
	C299.474243,199.110199 299.224274,196.537689 298.996155,193.977173 
	C299.018036,193.989182 299.014648,194.039001 299.119873,193.649445 
	C299.136078,190.833588 299.047119,188.407288 298.985046,185.988068 
	C299.011902,185.995178 298.988983,186.045837 299.057861,185.635559 
	C299.059723,184.678055 298.992767,184.130829 299.134979,183.326202 
	C299.447235,179.846146 299.578369,176.623871 299.619751,173.400436 
	C299.625214,172.974625 299.173218,172.542969 299.061157,171.798233 
	C300.133728,170.998947 301.078217,170.515457 302.063416,170.068893 
	C302.104187,170.105820 302.206909,170.145035 302.281403,170.431915 
	C302.527618,171.473083 302.699371,172.227386 302.611450,173.191284 
	C302.471344,175.627701 302.590851,177.854538 302.378662,180.165466 
	C301.808777,187.277008 301.546631,194.303894 301.378845,201.333038 
	C301.365692,201.884018 302.010559,202.450714 302.328613,203.397751 
	C300.214050,207.614548 301.542877,210.451630 305.089539,213.021118 
	C308.811859,212.581329 312.337219,211.823318 315.998566,211.235413 
	C316.432922,211.259552 316.731293,211.113586 317.025909,210.994934 
	C317.022156,211.022232 316.967346,211.028366 317.322449,210.983154 
	C319.452606,209.943802 321.227722,208.949661 323.005096,207.981644 
	C323.007355,208.007782 322.955536,207.999680 323.298157,207.918488 
	C325.434967,204.550735 327.229187,201.264175 329.012329,197.990067 
	C329.001251,198.002518 328.969025,198.011017 329.195312,198.212738 
	C329.603760,198.327057 329.785950,198.239655 330.248108,198.019226 
	C330.776459,197.335083 331.024902,196.784012 331.487762,195.953461 
	C332.149445,194.106201 332.596680,192.538422 333.148682,190.682419 
	C333.289856,189.987534 333.326233,189.580887 333.587891,188.942871 
	C334.213196,187.793640 334.613220,186.875748 335.019958,185.987076 
	C335.026642,186.016281 334.969238,186.033539 335.314697,185.945892 
	C335.429352,184.894775 335.198578,183.931305 334.996552,182.975433 
	C335.025330,182.983017 335.013641,183.041382 335.122803,182.663788 
	C335.158112,181.509857 335.084198,180.733490 335.016815,179.986420 
	C335.023315,180.015701 334.965332,180.031097 335.302307,179.921677 
	C335.417175,178.862503 335.195099,177.912766 334.997131,176.975250 
	C335.021210,176.987488 335.018616,177.041473 335.141663,176.643036 
	C335.167572,175.696777 335.070496,175.148956 335.153381,174.331161 
	C334.883087,172.535477 334.399414,171.018616 333.992310,169.481476 
	C333.620911,168.079132 333.332458,166.654800 333.368439,165.196594 
	C343.738831,168.315781 349.192017,176.506897 354.882172,185.061676 
	C365.072510,173.958221 368.717773,160.917404 370.090271,146.956329 
z"/>
<path fill="#84C3CA" opacity="1.000000" stroke="none" 
	d="
M241.843689,131.142807 
	C246.813385,122.684380 254.598206,117.265350 262.831268,112.656136 
	C300.639740,91.489433 346.606873,104.556679 367.770447,142.934174 
	C364.638275,145.017349 361.674835,146.487762 358.529480,148.048447 
	C351.410980,135.421402 341.982086,125.602028 328.598999,119.257950 
	C325.543945,125.329178 322.818176,130.745987 319.983765,136.378708 
	C328.953918,141.401932 336.140015,147.568222 340.863800,156.906128 
	C337.003967,158.726700 333.423126,160.415680 329.596802,161.875015 
	C326.946472,158.871246 324.541656,156.097137 322.009155,152.934418 
	C320.579834,152.356003 319.278259,152.166183 317.994751,151.986389 
	C318.012878,151.996429 318.019165,152.037338 318.112183,151.670959 
	C317.455933,150.864502 316.706665,150.424438 315.985962,149.980225 
	C316.014496,149.976044 316.035797,150.029648 315.907288,149.666580 
	C314.056946,148.871338 312.335114,148.439148 310.490906,147.976715 
	C310.368500,147.946442 310.129364,147.866287 310.054932,147.515518 
	C307.909363,145.114990 306.311523,145.755249 304.998535,148.017151 
	C304.993988,147.993866 305.040924,148.001007 304.712097,148.087494 
	C304.258789,148.791138 304.134308,149.408295 304.003662,150.011749 
	C303.997559,149.998047 304.026917,150.004196 303.706329,149.967331 
	C303.257660,150.297119 303.129578,150.663773 302.997559,151.012329 
	C302.993591,150.994217 303.030457,150.997940 302.670410,151.010147 
	C302.075470,152.457382 301.976318,153.933441 301.559265,155.313385 
	C301.268127,156.276581 300.541534,157.108154 299.897644,157.679932 
	C299.176056,154.908691 298.566223,152.456024 297.981628,150.000854 
	C298.006866,149.998322 297.992188,150.046936 297.957947,149.726898 
	C297.612274,149.129272 297.300873,148.851669 296.775574,148.400757 
	C296.216034,148.105148 295.870331,147.982880 295.500183,147.526550 
	C292.615997,145.852295 287.342957,147.609741 284.126038,151.202606 
	C280.303253,154.028580 276.712402,156.549881 272.854309,159.054199 
	C272.230194,159.028305 271.873322,159.019379 271.438812,158.549637 
	C269.514923,147.167358 272.811432,137.264359 278.895813,126.483337 
	C272.160400,126.483337 266.822784,125.895233 261.673859,126.629692 
	C254.985306,127.583771 248.446793,129.589645 241.843689,131.142807 
z"/>
<path fill="#85C3CA" opacity="1.000000" stroke="none" 
	d="
M271.516449,159.010452 
	C271.873322,159.019379 272.230194,159.028305 272.821106,159.430634 
	C272.962341,160.830719 272.869537,161.837402 272.776428,162.885727 
	C272.776093,162.927353 272.701477,162.889206 272.358887,162.964035 
	C270.696869,164.756241 269.377472,166.473618 267.825623,168.367004 
	C267.395050,168.875671 267.196930,169.208328 266.999023,169.514709 
	C266.999237,169.488434 267.049835,169.502579 266.706848,169.672699 
	C266.144409,173.288834 265.710419,176.739273 265.781097,180.179337 
	C265.828064,182.465088 266.596497,184.736008 267.012665,187.015091 
	C266.983368,187.016617 266.980499,186.958023 267.062866,187.203461 
	C267.642700,187.801620 268.140167,188.154358 268.927490,188.700958 
	C269.781982,190.807312 270.245300,192.757843 270.943939,194.620071 
	C271.485626,196.063934 272.321381,197.397476 273.335724,198.852768 
	C274.067810,198.926895 274.490540,198.928329 274.912476,199.005371 
	C274.911621,199.080963 274.947266,199.227875 274.962860,199.527100 
	C272.367004,203.764862 277.018890,204.622818 278.004822,207.020737 
	C277.978333,207.017105 277.983795,206.963928 277.959473,207.288620 
	C278.301270,207.748322 278.667419,207.883331 279.008667,208.018860 
	C278.983734,208.019394 278.975739,207.970184 279.011475,208.344025 
	C280.706482,209.154617 282.365753,209.591354 284.009766,210.015381 
	C283.994537,210.002640 283.972809,209.969376 283.919128,210.302139 
	C284.255524,210.763245 284.645599,210.891586 285.010132,211.020294 
	C284.984589,211.020645 284.968567,210.972122 285.076111,211.346359 
	C287.138031,212.150970 289.092407,212.581329 291.017090,213.011780 
	C290.987427,213.011871 290.991211,212.952637 291.076721,213.266388 
	C291.806000,214.383560 292.449799,215.187012 292.763336,216.129257 
	C284.101471,218.920670 275.769836,221.573273 267.128265,224.324570 
	C267.746826,225.766815 268.624634,228.060822 269.693054,230.262314 
	C274.753876,240.690506 282.968506,248.279572 292.121613,255.009460 
	C276.590729,254.090942 263.146088,247.885025 251.525375,237.965286 
	C232.397247,221.637131 223.173492,200.648224 224.129898,175.473679 
	C224.637146,162.121460 228.559433,149.683273 236.354004,138.162781 
	C239.312454,139.568451 241.755295,141.198151 244.307297,142.900665 
	C236.899506,155.459732 233.090576,168.376923 234.346954,183.199738 
	C240.956329,182.809830 247.118607,182.446289 253.515503,182.068909 
	C253.467087,171.674118 254.936295,162.341187 260.801300,153.938354 
	C262.849121,155.277847 264.548218,156.636505 266.457611,157.560684 
	C268.013336,158.313675 269.820679,158.546799 271.516449,159.010452 
z"/>
<path fill="#2B2726" opacity="1.000000" stroke="none" 
	d="
M329.842316,162.104645 
	C333.423126,160.415680 337.003967,158.726700 340.863800,156.906128 
	C336.140015,147.568222 328.953918,141.401932 319.983765,136.378708 
	C322.818176,130.745987 325.543945,125.329178 328.598999,119.257950 
	C341.982086,125.602028 351.410980,135.421402 358.529480,148.048447 
	C361.674835,146.487762 364.638275,145.017349 367.842590,143.278900 
	C368.718353,144.089478 369.353241,145.168076 370.039185,146.601501 
	C368.717773,160.917404 365.072510,173.958221 354.882172,185.061676 
	C349.192017,176.506897 343.738831,168.315781 333.046387,165.044006 
	C331.523010,163.991547 330.682678,163.048096 329.842316,162.104645 
M323.938477,135.877960 
	C332.632568,141.174240 339.574280,148.039276 343.923279,157.759521 
	C340.930695,159.407120 338.264282,160.875153 336.482513,161.856110 
	C342.971649,167.949173 349.434265,174.017288 356.001434,180.183624 
	C363.008514,170.813995 366.862396,159.785126 367.278076,146.701523 
	C363.658630,148.283173 360.692047,149.579529 357.370087,151.031189 
	C351.009827,138.787018 342.314514,129.053192 329.551270,122.415184 
	C327.420197,126.986938 325.474182,131.161743 323.938477,135.877960 
z"/>
<path fill="#2B2827" opacity="1.000000" stroke="none" 
	d="
M271.438812,158.549637 
	C269.820679,158.546799 268.013336,158.313675 266.457611,157.560684 
	C264.548218,156.636505 262.849121,155.277847 260.801300,153.938354 
	C254.936295,162.341187 253.467087,171.674118 253.515503,182.068909 
	C247.118607,182.446289 240.956329,182.809830 234.346954,183.199738 
	C233.090576,168.376923 236.899506,155.459732 244.307297,142.900665 
	C241.755295,141.198151 239.312454,139.568451 236.536209,137.847839 
	C236.364075,136.544601 236.092850,134.888031 236.781586,134.217575 
	C238.008072,133.023575 239.815292,132.426102 241.611649,131.360977 
	C248.446793,129.589645 254.985306,127.583771 261.673859,126.629692 
	C266.822784,125.895233 272.160400,126.483337 278.895813,126.483337 
	C272.811432,137.264359 269.514923,147.167358 271.438812,158.549637 
M268.028473,155.463821 
	C268.162628,155.472931 268.296783,155.482040 268.430939,155.491135 
	C268.368347,155.251297 268.305725,155.011459 268.373596,153.957275 
	C269.888550,145.755386 271.403473,137.553497 272.964752,129.100601 
	C261.458038,127.738762 249.969177,129.893082 238.571594,136.023514 
	C241.916595,138.386307 244.587143,140.272690 247.492645,142.325027 
	C239.897293,154.134903 236.070908,166.564484 236.504288,180.658325 
	C241.499252,180.366074 246.049927,180.099808 250.803650,179.821655 
	C251.517319,169.161880 253.413010,159.225571 260.050079,150.838318 
	C262.944489,152.454285 265.388519,153.818787 268.028473,155.463821 
z"/>
<path fill="#2A2827" opacity="1.000000" stroke="none" 
	d="
M292.446838,255.100601 
	C282.968506,248.279572 274.753876,240.690506 269.693054,230.262314 
	C268.624634,228.060822 267.746826,225.766815 267.128265,224.324570 
	C275.769836,221.573273 284.101471,218.920670 293.041504,216.036285 
	C294.129028,214.978760 294.608154,214.152985 295.344055,213.189743 
	C296.062134,212.698029 296.523468,212.343811 297.225464,211.989960 
	C297.466095,211.990326 297.947083,212.007355 297.947083,212.007355 
	C298.197998,216.067017 298.448914,220.126694 298.732422,224.713913 
	C308.386963,225.308197 317.264038,222.210709 326.326324,216.775574 
	C329.756256,221.995728 333.150452,227.161453 336.826447,232.756134 
	C324.831909,241.260971 311.786713,244.481567 297.199463,244.281876 
	C296.814667,247.953445 296.441925,251.510071 296.021667,255.469666 
	C294.906799,255.645660 293.839447,255.418701 292.446838,255.100601 
M291.264740,251.185516 
	C292.069611,251.533173 292.874512,251.880814 293.930420,252.336899 
	C294.012207,251.062149 294.073029,250.237930 294.116730,249.412796 
	C294.506775,242.051025 294.508972,242.150253 301.989471,241.917679 
	C313.176636,241.569839 323.519043,238.397644 333.598053,232.272186 
	C330.807495,227.963928 328.252869,224.019897 325.681702,220.050354 
	C316.045227,225.171249 306.620026,228.262222 295.743958,226.597260 
	C295.743958,223.283905 295.743958,220.428757 295.743958,218.505676 
	C287.276794,221.040451 278.960052,223.530197 270.423553,226.085724 
	C274.470215,236.102432 281.629486,244.203308 291.264740,251.185516 
z"/>
<path fill="#2D2D2D" opacity="1.000000" stroke="none" 
	d="
M194.369308,223.673996 
	C192.671768,221.823410 191.082581,220.319138 189.899582,218.544144 
	C189.445297,217.862534 189.917023,216.563751 189.966812,215.546173 
	C190.942032,215.841354 191.980789,216.014603 192.868652,216.477371 
	C193.402344,216.755524 193.674713,217.507660 194.108841,218.008331 
	C201.220810,226.210098 208.520966,226.459793 216.353271,219.026154 
	C217.859299,217.596802 220.074142,216.914307 221.961975,215.887253 
	C220.871765,217.899704 220.174042,220.303009 218.625015,221.858582 
	C210.932129,229.584045 203.430374,230.118774 194.369308,223.673996 
z"/>
<path fill="#85C4CB" opacity="1.000000" stroke="none" 
	d="
M246.753265,365.618530 
	C246.938644,365.554108 247.354553,365.790619 247.641022,366.245453 
	C247.335663,366.282318 247.159729,366.100861 246.753265,365.618530 
z"/>
<path fill="#E3EFEE" opacity="1.000000" stroke="none" 
	d="
M344.683105,460.248688 
	C343.493195,459.369873 342.181335,458.475952 342.112579,457.494934 
	C341.857086,453.848572 342.002472,450.173584 342.012207,446.509399 
	C342.026367,441.197327 344.227081,439.658661 351.430054,439.906891 
	C356.833893,440.093109 359.429962,442.663788 359.101013,447.502869 
	C358.670502,453.835815 352.985260,459.000732 344.683105,460.248688 
z"/>
<path fill="#E2EFEE" opacity="1.000000" stroke="none" 
	d="
M303.694214,470.902924 
	C305.339203,462.379669 306.068756,453.975830 308.940735,446.382324 
	C312.002655,438.286774 317.513641,438.038635 322.249664,445.335876 
	C329.986298,457.256439 331.085938,470.185760 325.726410,483.383209 
	C323.896423,487.889404 320.558228,491.193726 315.077911,490.919403 
	C309.506226,490.640442 306.892059,486.832031 305.550629,482.130676 
	C304.559113,478.655701 304.304474,474.970490 303.694214,470.902924 
z"/>
<path fill="#E5A0A0" opacity="1.000000" stroke="none" 
	d="
M296.984802,211.989594 
	C296.523468,212.343811 296.062134,212.698029 294.930481,213.136841 
	C293.170502,213.131836 292.080841,213.042236 290.991211,212.952637 
	C290.991211,212.952637 290.987427,213.011871 291.134277,212.647705 
	C289.980042,207.980728 286.954193,211.980042 284.968567,210.972122 
	C284.968567,210.972122 284.984589,211.020645 284.969482,210.738617 
	C284.627197,210.294189 284.299988,210.131790 283.972809,209.969376 
	C283.972809,209.969376 283.994537,210.002640 284.025543,209.654465 
	C284.095703,208.585831 284.134827,207.865356 284.429688,206.932739 
	C284.815796,205.529022 284.946198,204.337479 285.076599,203.145950 
	C284.623505,203.120728 284.170441,203.095520 283.717346,203.070312 
	C283.655151,204.255875 283.592957,205.441422 283.289856,206.900848 
	C281.691223,207.439865 280.333466,207.705017 278.975739,207.970184 
	C278.975739,207.970184 278.983734,208.019394 278.979919,207.725403 
	C278.645325,207.275574 278.314545,207.119751 277.983795,206.963928 
	C277.983795,206.963928 277.978333,207.017105 278.050598,206.619507 
	C277.064362,203.890564 276.005829,201.559219 274.947266,199.227875 
	C274.947266,199.227875 274.911621,199.080963 274.895020,198.728683 
	C274.591278,198.068481 274.304077,197.760574 274.016876,197.452667 
	C273.686707,197.895142 273.356567,198.337601 273.026398,198.780075 
	C272.321381,197.397476 271.485626,196.063934 270.943939,194.620071 
	C270.245300,192.757843 269.781982,190.807312 268.761383,188.551529 
	C267.863831,187.791504 267.422150,187.374756 266.980499,186.958023 
	C266.980499,186.958023 266.983368,187.016617 267.057251,186.609833 
	C267.120789,182.945053 267.110443,179.687073 267.443420,176.269531 
	C271.508331,173.955673 273.610352,175.526535 274.831818,179.480164 
	C274.778473,180.416962 274.706818,181.038498 274.438538,181.826508 
	C274.300934,182.436478 274.359955,182.879959 274.418945,183.323456 
	C274.688324,182.950684 274.957703,182.577911 275.501160,182.045776 
	C276.443298,181.416458 277.111328,180.946472 277.854523,180.423645 
	C276.852692,179.735703 276.086395,179.209503 275.272217,178.277451 
	C275.415955,175.469421 275.607605,173.067261 275.823456,170.362061 
	C274.641022,170.251633 273.273041,170.123871 271.759186,169.982483 
	C272.731628,171.191788 273.500763,172.148270 274.921448,173.915039 
	C271.482574,173.915039 269.246094,173.915039 266.985046,173.471985 
	C266.990234,171.853485 267.020020,170.678024 267.049835,169.502579 
	C267.049835,169.502579 266.999237,169.488434 267.246246,169.353607 
	C267.681519,168.876175 267.869781,168.533585 268.058075,168.190979 
	C269.377472,166.473618 270.696869,164.756241 272.481384,163.273438 
	C273.526855,163.799301 274.107208,164.090622 274.935364,164.595551 
	C276.336304,165.340652 277.489471,165.872116 278.755371,166.748016 
	C278.994659,168.213196 279.121277,169.333969 279.247894,170.454727 
	C279.796143,170.248886 280.344360,170.043045 280.892578,169.837204 
	C280.319427,168.505402 279.746307,167.173599 279.154602,165.545700 
	C279.112518,164.854813 279.088959,164.460007 279.301941,163.977631 
	C279.977203,163.647263 280.416016,163.404495 280.975586,163.339096 
	C281.197052,163.216934 281.297699,162.917389 281.227783,162.343872 
	C280.490387,161.254578 279.923645,160.439255 279.185120,159.376846 
	C278.931641,160.955429 278.736420,162.171097 278.224854,163.501205 
	C276.995453,163.678085 276.082458,163.740509 274.956787,163.544373 
	C274.088318,163.138580 273.432526,162.991348 272.776733,162.844101 
	C272.869537,161.837402 272.962341,160.830719 273.088348,159.447601 
	C276.712402,156.549881 280.303253,154.028580 284.448273,151.122620 
	C287.752747,150.737946 290.503082,150.737946 293.253448,150.737946 
	C293.569550,150.418182 293.885681,150.098419 294.201813,149.778656 
	C293.050598,149.557281 291.899384,149.335922 290.748169,149.114563 
	C291.053955,148.696579 291.359741,148.278595 291.665558,147.860611 
	C292.951904,147.860611 294.238281,147.860611 295.524658,147.860611 
	C295.870331,147.982880 296.216034,148.105148 296.514008,148.618744 
	C296.974945,149.355682 297.483551,149.701309 297.992188,150.046936 
	C297.992188,150.046936 298.006866,149.998322 297.914307,150.444946 
	C299.601166,154.717438 298.726654,156.585861 294.110657,155.538361 
	C293.701172,155.166809 293.400787,155.032150 293.024353,154.752686 
	C292.825867,154.585037 292.703430,154.562195 292.580994,154.539352 
	C292.665680,154.741821 292.750366,154.944290 292.851532,155.407700 
	C293.113953,155.913132 293.359894,156.157608 293.866425,156.636566 
	C296.030548,157.634857 297.934143,158.398636 299.812683,159.181427 
	C299.787659,159.200439 299.760010,159.256851 299.795135,159.610474 
	C299.332336,164.067749 296.431854,163.916641 293.304565,163.376617 
	C293.003265,162.907181 292.779968,162.685730 292.342224,162.264664 
	C291.502716,161.398788 290.833466,160.777054 290.164246,160.155304 
	C289.891846,160.427521 289.619446,160.699738 289.347076,160.971954 
	C290.177643,161.704163 291.008209,162.436371 291.919495,163.400238 
	C292.151276,163.938782 292.382477,164.163025 292.718689,164.603180 
	C292.812866,165.089020 292.882202,165.276306 292.966309,165.443878 
	C292.981140,165.424149 292.997192,165.376572 292.700073,165.610687 
	C291.100586,166.333908 289.798218,166.822983 288.039001,167.483643 
	C290.668335,168.279083 293.601349,168.778809 291.845093,171.267624 
	C294.171814,171.545471 296.552460,171.829742 298.933075,172.114029 
	C299.173218,172.542969 299.625214,172.974625 299.619751,173.400436 
	C299.578369,176.623871 299.447235,179.846146 298.739563,183.465424 
	C296.306335,184.030762 294.477661,184.199463 292.648987,184.368164 
	C292.619812,184.659683 292.590668,184.951218 292.561493,185.242752 
	C294.703979,185.510452 296.846497,185.778137 298.988983,186.045837 
	C298.988983,186.045837 299.011902,185.995178 298.845642,186.354614 
	C298.033539,188.616287 297.387695,190.518524 296.641266,192.716965 
	C297.064606,192.952774 298.039612,193.495895 299.014648,194.039001 
	C299.014648,194.039001 299.018036,193.989182 298.946930,194.347900 
	C298.907013,197.147339 298.938232,199.588043 298.969421,202.028748 
	C298.969421,202.028748 299.022369,202.013138 298.655518,202.061676 
	C296.448334,202.272659 294.608002,202.435104 292.526459,202.618851 
	C292.456787,203.203964 292.314758,204.396606 292.237549,205.045059 
	C294.667480,205.045059 296.832855,205.045059 298.998230,205.045059 
	C298.998230,205.045059 299.014587,204.991135 298.886047,205.382568 
	C298.828949,206.859894 298.900360,207.945755 298.971771,209.031631 
	C298.971771,209.031631 299.017975,209.011169 298.692505,209.091064 
	C298.231537,209.786102 298.096039,210.401276 297.960571,211.016449 
	C297.960602,211.016449 298.012604,211.007538 297.710968,210.967117 
	C297.267822,211.280991 297.126312,211.635284 296.984802,211.989594 
M290.730896,189.982483 
	C290.602417,189.173843 290.473969,188.365189 290.345490,187.556549 
	C289.919403,187.694687 289.493317,187.832840 289.067200,187.970993 
	C289.478424,188.790771 289.889618,189.610535 290.730896,189.982483 
M288.186279,172.568283 
	C288.190826,172.200546 288.195374,171.832794 288.199951,171.465057 
	C288.047394,171.463242 287.762207,171.450958 287.761444,171.461105 
	C287.732605,171.826981 287.730286,172.194962 288.186279,172.568283 
M285.471710,185.721970 
	C285.725342,185.988586 285.976624,186.257706 286.245636,186.507797 
	C286.252502,186.514206 286.453461,186.311844 286.563934,186.206848 
	C286.310028,185.940170 286.056091,185.673508 285.471710,185.721970 
M284.677917,189.476578 
	C284.876678,189.464447 285.075470,189.452316 285.274231,189.440170 
	C285.141418,189.381897 285.008606,189.323608 284.677917,189.476578 
M285.836395,164.710571 
	C285.917755,164.566269 285.999115,164.421982 286.080475,164.277695 
	C285.947174,164.340057 285.813873,164.402420 285.836395,164.710571 
M282.358826,166.912781 
	C282.606354,166.701355 282.853882,166.489914 283.101410,166.278503 
	C282.734985,166.347260 282.368561,166.416000 282.358826,166.912781 
z"/>
<path fill="#E5A0A1" opacity="1.000000" stroke="none" 
	d="
M329.596802,161.875000 
	C330.682678,163.048096 331.523010,163.991547 332.685425,165.087585 
	C333.332458,166.654800 333.620911,168.079132 333.992310,169.481476 
	C334.399414,171.018616 334.883087,172.535477 334.840088,174.401443 
	C334.570740,175.508301 334.794678,176.274887 335.018616,177.041473 
	C335.018616,177.041473 335.021210,176.987488 334.943176,177.357437 
	C334.898560,178.495285 334.931946,179.263199 334.965332,180.031097 
	C334.965332,180.031097 335.023315,180.015701 334.724243,180.002975 
	C334.621338,181.007294 334.817474,182.024338 335.013641,183.041382 
	C335.013641,183.041382 335.025330,182.983017 334.937775,183.356476 
	C334.889893,184.497787 334.929565,185.265671 334.969238,186.033539 
	C334.969238,186.033539 335.026642,186.016281 334.699219,186.070374 
	C333.251923,186.817139 332.132019,187.509827 330.876099,187.966599 
	C330.319794,187.699783 329.899536,187.668869 329.479248,187.637955 
	C329.619690,188.757965 329.760132,189.877975 329.842834,191.334122 
	C329.871429,192.111557 329.957703,192.552841 330.078186,193.374786 
	C330.158936,194.515793 330.205414,195.276184 330.145782,196.231293 
	C330.039642,196.426041 329.939667,196.858231 329.709961,196.989700 
	C329.309845,197.417786 329.139435,197.714401 328.969025,198.011017 
	C328.969025,198.011017 329.001251,198.002518 328.662994,197.915619 
	C326.493896,195.935623 324.663055,194.042511 323.144623,192.472412 
	C322.898926,195.384399 322.898926,195.384399 315.908752,199.420044 
	C322.406433,199.926208 323.495941,201.252716 322.955536,207.999680 
	C322.955536,207.999680 323.007355,208.007782 322.638031,207.880798 
	C318.989777,208.926788 318.079376,206.713837 317.528625,204.103287 
	C317.949005,203.396362 318.157379,202.875885 318.522888,202.185364 
	C318.608826,201.752243 318.537659,201.489182 318.466522,201.226105 
	C318.238342,201.408066 318.010162,201.590027 317.549500,201.921356 
	C317.028564,202.537949 316.740173,203.005188 316.210815,203.586212 
	C315.524078,203.982681 315.078308,204.265396 314.395996,204.640839 
	C314.003662,205.035721 313.847870,205.337860 313.692047,205.639984 
	C314.186218,205.494034 314.680389,205.348099 315.484924,205.380081 
	C316.185974,207.381470 316.576660,209.204926 316.967346,211.028366 
	C316.967346,211.028366 317.022156,211.022232 316.727539,210.940796 
	C316.242798,210.928009 316.052673,210.996674 315.862579,211.065308 
	C312.337219,211.823318 308.811859,212.581329 304.852173,212.758118 
	C304.123413,209.900696 303.828979,207.624481 303.534546,205.348282 
	C305.206818,205.391098 306.879120,205.433914 308.754089,205.682663 
	C309.214020,205.869995 309.471283,205.851395 309.728546,205.832809 
	C309.555420,205.488846 309.382294,205.144882 309.154114,204.442535 
	C309.549805,202.716400 310.000641,201.348663 310.594513,199.546936 
	C309.206726,199.338089 307.899475,199.141373 306.950165,198.998505 
	C307.232971,200.349762 307.432343,201.302475 307.631744,202.255188 
	C306.263062,202.372040 304.894379,202.488892 303.361572,202.204254 
	C303.179230,199.174362 303.050812,196.537292 303.255341,193.926331 
	C303.287994,193.509659 304.814148,193.209976 305.991089,192.899429 
	C307.382385,193.715790 308.432434,194.488953 309.639008,195.377380 
	C310.698883,191.587860 308.976349,190.629562 305.284729,191.156952 
	C304.340271,189.762360 303.781708,188.344833 303.223145,186.927307 
	C305.197632,186.830948 307.172089,186.734573 309.111267,187.045807 
	C310.312592,191.742294 313.426086,190.428223 317.148132,190.367767 
	C315.763000,188.721588 314.980225,187.791306 314.490417,186.728943 
	C316.636414,185.444687 318.489502,184.292465 320.342560,183.140259 
	C320.415070,183.266281 320.487579,183.392319 320.560089,183.518341 
	C321.720215,182.206024 322.880341,180.893707 323.852081,179.794495 
	C322.927307,178.528366 321.889465,177.107452 320.735382,175.527390 
	C320.315552,177.961960 319.974365,179.940613 319.481689,182.797607 
	C317.615570,181.165527 316.570038,180.251129 315.790955,179.569733 
	C315.249451,182.093521 314.738739,184.473862 313.811707,186.898895 
	C312.568756,186.952011 311.742126,186.960449 310.920868,186.552002 
	C310.926239,184.309204 310.926239,182.483292 310.926239,181.605820 
	C308.891327,182.478928 307.016449,183.674591 305.030121,183.903778 
	C304.412109,183.975098 303.492126,181.429153 302.710388,180.081375 
	C302.590851,177.854538 302.471344,175.627701 302.883789,173.024002 
	C303.012787,171.813110 302.609863,170.979065 302.206909,170.145035 
	C302.206909,170.145035 302.104187,170.105820 302.105652,169.693863 
	C302.409180,167.868912 302.711212,166.455917 303.411072,165.006699 
	C304.873566,164.994308 305.938202,165.018112 307.237976,165.283508 
	C307.438538,166.732330 307.403992,167.939560 307.036987,169.134155 
	C306.329559,169.519882 305.954620,169.918228 305.579681,170.316559 
	C306.167450,170.498932 306.755188,170.681305 307.617004,170.956146 
	C308.932800,171.220993 310.083466,171.171692 310.990875,171.617538 
	C312.360779,172.290649 313.560944,173.309235 314.972473,174.404175 
	C315.352997,174.616348 315.594360,174.605331 315.835693,174.594330 
	C315.716278,174.248459 315.596863,173.902588 315.318451,173.238358 
	C316.115570,171.908981 317.071686,170.897964 318.380524,169.513916 
	C313.775970,169.773651 314.831787,166.922989 315.545105,164.165039 
	C315.723785,163.743744 315.702057,163.497528 315.680328,163.251328 
	C315.366913,163.412262 315.053467,163.573196 314.476471,163.964417 
	C312.952576,165.069427 311.692230,165.944153 310.431915,166.818878 
	C309.960236,165.879318 309.488556,164.939758 309.143463,163.848907 
	C309.270050,163.697632 309.415466,163.330917 309.630371,163.242279 
	C310.116028,162.994431 310.339050,162.784500 310.852081,162.414291 
	C312.254883,162.055801 313.319946,161.806885 315.260529,161.353348 
	C312.875214,160.708603 311.459747,160.326004 309.905640,159.729080 
	C309.335358,159.533279 308.903687,159.551788 308.472015,159.570282 
	C308.817993,159.903046 309.163940,160.235809 309.571289,160.788483 
	C309.820496,161.267105 309.898193,161.555496 309.626770,161.954880 
	C309.202881,162.305573 309.018066,162.574936 308.580475,162.949005 
	C308.089233,163.328537 307.850769,163.603363 307.454895,163.859756 
	C307.297516,163.841324 307.003204,163.958862 306.619080,163.911087 
	C305.221466,163.694962 304.207947,163.526611 303.005127,163.083221 
	C302.557373,161.540436 302.298950,160.272736 302.309448,158.781799 
	C304.434753,157.747955 306.291077,156.937347 308.394165,156.000504 
	C308.668579,155.459259 308.696228,155.044235 308.723877,154.629227 
	C308.306000,154.932068 307.888123,155.234909 307.099304,155.663345 
	C302.001648,156.888824 302.915558,153.635010 303.030457,150.997940 
	C303.030457,150.997940 302.993591,150.994217 303.296753,151.003998 
	C303.742279,150.677261 303.884613,150.340729 304.026917,150.004196 
	C304.026917,150.004196 303.997559,149.998047 304.339172,149.941772 
	C304.800842,149.257339 304.920868,148.629166 305.040924,148.001007 
	C305.040924,148.001007 304.993988,147.993866 305.426453,148.078491 
	C307.282410,148.064163 308.705872,147.965225 310.129364,147.866302 
	C310.129364,147.866287 310.368500,147.946442 310.441284,148.300415 
	C309.795563,149.202286 309.077087,149.750198 308.358582,150.298096 
	C308.431854,150.559708 308.505096,150.821304 308.578369,151.082901 
	C311.064178,150.731812 313.549988,150.380737 316.035797,150.029648 
	C316.035797,150.029648 316.014496,149.976044 316.064545,150.275421 
	C316.749451,151.062317 317.384308,151.549835 318.019165,152.037338 
	C318.019165,152.037338 318.012878,151.996429 317.915771,152.194489 
	C317.818665,152.392548 317.812378,152.837708 317.597107,152.995544 
	C317.088928,153.597946 316.796021,154.042496 316.316162,154.631195 
	C315.899658,154.998978 315.698395,155.245712 315.300079,155.556244 
	C314.792908,155.725357 314.497162,155.793503 314.056824,155.531799 
	C313.675903,155.246933 313.425751,155.231689 313.175568,155.216431 
	C313.300537,155.619720 313.425507,156.023010 313.744629,156.709488 
	C315.267548,157.401352 316.596283,157.810013 317.925018,158.218674 
	C317.970795,157.968246 318.016541,157.717819 318.062317,157.467392 
	C317.428162,157.027618 316.794037,156.587860 316.380188,156.037415 
	C316.867157,155.706345 317.025391,155.424957 317.322083,154.982986 
	C317.904053,154.481491 318.239075,154.079575 318.911926,153.545380 
	C320.212158,153.383087 321.174500,153.353058 322.136841,153.323029 
	C324.541656,156.097137 326.946472,158.871246 329.596802,161.875000 
z"/>
<path fill="#5D4E4C" opacity="1.000000" stroke="none" 
	d="
M323.298157,207.918488 
	C323.495941,201.252716 322.406433,199.926208 315.908752,199.420044 
	C322.898926,195.384399 322.898926,195.384399 323.144623,192.472412 
	C324.663055,194.042511 326.493896,195.935623 328.674072,197.903168 
	C327.229187,201.264175 325.434967,204.550735 323.298157,207.918488 
z"/>
<path fill="#635A5A" opacity="1.000000" stroke="none" 
	d="
M302.378662,180.165466 
	C303.492126,181.429153 304.412109,183.975098 305.030121,183.903778 
	C307.016449,183.674591 308.891327,182.478928 310.926239,181.605820 
	C310.926239,182.483292 310.926239,184.309204 310.616852,186.556580 
	C309.920502,186.864792 309.533539,186.751495 309.146576,186.638214 
	C307.172089,186.734573 305.197632,186.830948 303.223145,186.927307 
	C303.781708,188.344833 304.340271,189.762360 305.362976,191.441193 
	C305.768005,192.087082 305.708923,192.471649 305.649841,192.856216 
	C304.814148,193.209976 303.287994,193.509659 303.255341,193.926331 
	C303.050812,196.537292 303.179230,199.174362 303.071899,202.319824 
	C302.747437,202.894623 302.548523,202.952362 302.349579,203.010117 
	C302.010559,202.450714 301.365692,201.884018 301.378845,201.333038 
	C301.546631,194.303894 301.808777,187.277008 302.378662,180.165466 
z"/>
<path fill="#594C4B" opacity="1.000000" stroke="none" 
	d="
M302.040497,159.005005 
	C302.298950,160.272736 302.557373,161.540436 302.950073,163.504028 
	C303.060608,164.480896 303.036896,164.761902 303.013245,165.042908 
	C302.711212,166.455917 302.409180,167.868912 302.064911,169.656937 
	C301.078217,170.515457 300.133728,170.998947 299.061157,171.798233 
	C296.552460,171.829742 294.171814,171.545471 291.845093,171.267624 
	C293.601349,168.778809 290.668335,168.279083 288.039001,167.483643 
	C289.798218,166.822983 291.100586,166.333908 292.849121,166.022980 
	C292.469269,169.716095 295.148102,170.065796 297.284058,169.912643 
	C298.103638,169.853882 298.761871,167.545395 299.719788,166.120728 
	C299.527161,165.688690 299.108459,165.397980 298.277527,165.072662 
	C296.227386,165.179916 294.589447,165.321762 292.951508,165.463608 
	C292.882202,165.276306 292.812866,165.089020 292.902344,164.422134 
	C293.182983,163.821732 293.304810,163.700912 293.426666,163.580078 
	C296.431854,163.916641 299.332336,164.067749 300.172394,159.536575 
	C301.023193,159.074371 301.531830,159.039688 302.040497,159.005005 
z"/>
<path fill="#5D4C4B" opacity="1.000000" stroke="none" 
	d="
M302.328613,203.397751 
	C302.548523,202.952362 302.747437,202.894623 303.236023,202.721313 
	C304.894379,202.488892 306.263062,202.372040 307.631744,202.255188 
	C307.432343,201.302475 307.232971,200.349762 306.950165,198.998505 
	C307.899475,199.141373 309.206726,199.338089 310.594513,199.546936 
	C310.000641,201.348663 309.549805,202.716400 308.986572,204.608505 
	C308.874176,205.132874 308.551392,205.476746 308.551392,205.476746 
	C306.879120,205.433914 305.206818,205.391098 303.534546,205.348282 
	C303.828979,207.624481 304.123413,209.900696 304.655212,212.439911 
	C301.542877,210.451630 300.214050,207.614548 302.328613,203.397751 
z"/>
<path fill="#564C4B" opacity="1.000000" stroke="none" 
	d="
M299.038727,204.657166 
	C296.832855,205.045059 294.667480,205.045059 292.237549,205.045059 
	C292.314758,204.396606 292.456787,203.203964 292.526459,202.618851 
	C294.608002,202.435104 296.448334,202.272659 298.648071,202.035080 
	C299.031433,202.729721 299.055328,203.499481 299.038727,204.657166 
z"/>
<path fill="#5D4E4C" opacity="1.000000" stroke="none" 
	d="
M314.632538,204.548096 
	C315.078308,204.265396 315.524078,203.982681 316.423737,203.794037 
	C317.023956,204.021988 317.170319,204.155869 317.316650,204.289749 
	C318.079376,206.713837 318.989777,208.926788 322.635773,207.854675 
	C321.227722,208.949661 319.452606,209.943802 317.322418,210.983154 
	C316.576660,209.204926 316.185974,207.381470 315.348328,205.217468 
	C314.901367,204.876938 314.632538,204.548096 314.632538,204.548096 
z"/>
<path fill="#564C4B" opacity="1.000000" stroke="none" 
	d="
M299.057861,185.635559 
	C296.846497,185.778137 294.703979,185.510452 292.561493,185.242752 
	C292.590668,184.951218 292.619812,184.659683 292.648987,184.368164 
	C294.477661,184.199463 296.306335,184.030762 298.530396,183.722839 
	C298.992767,184.130829 299.059723,184.678055 299.057861,185.635559 
z"/>
<path fill="#564C4B" opacity="1.000000" stroke="none" 
	d="
M299.119873,193.649445 
	C298.039612,193.495895 297.064606,192.952774 296.641266,192.716965 
	C297.387695,190.518524 298.033539,188.616287 298.818787,186.347504 
	C299.047119,188.407288 299.136078,190.833588 299.119873,193.649445 
z"/>
<path fill="#5D4E4C" opacity="1.000000" stroke="none" 
	d="
M329.900543,190.997986 
	C329.760132,189.877975 329.619690,188.757965 329.479248,187.637955 
	C329.899536,187.668869 330.319794,187.699783 331.114075,188.187241 
	C332.112915,188.820602 332.737762,188.997421 333.362610,189.174225 
	C333.326233,189.580887 333.289856,189.987534 332.755737,190.685089 
	C331.472168,190.983322 330.686371,190.990662 329.900543,190.997986 
z"/>
<path fill="#564C4B" opacity="1.000000" stroke="none" 
	d="
M299.346832,201.855743 
	C298.938232,199.588043 298.907013,197.147339 298.925049,194.335907 
	C299.224274,196.537689 299.474243,199.110199 299.346832,201.855743 
z"/>
<path fill="#4C4B4C" opacity="1.000000" stroke="none" 
	d="
M329.842834,191.334137 
	C330.686371,190.990662 331.472168,190.983322 332.650940,190.973328 
	C332.596680,192.538422 332.149445,194.106201 331.407776,195.886383 
	C331.113312,196.098755 330.959717,195.961594 330.978790,195.631912 
	C330.679901,194.532867 330.361938,193.763504 330.044006,192.994141 
	C329.957703,192.552841 329.871429,192.111557 329.842834,191.334137 
z"/>
<path fill="#4C4B4C" opacity="1.000000" stroke="none" 
	d="
M333.587891,188.942871 
	C332.737762,188.997421 332.112915,188.820602 331.250092,188.423157 
	C332.132019,187.509827 333.251923,186.817139 334.692535,186.041168 
	C334.613220,186.875748 334.213196,187.793640 333.587891,188.942871 
z"/>
<path fill="#4C4B4C" opacity="1.000000" stroke="none" 
	d="
M335.122803,182.663788 
	C334.817474,182.024338 334.621338,181.007294 334.717773,179.973694 
	C335.084198,180.733490 335.158112,181.509857 335.122803,182.663788 
z"/>
<path fill="#564C4B" opacity="1.000000" stroke="none" 
	d="
M299.328735,208.931473 
	C298.900360,207.945755 298.828949,206.859894 298.858459,205.376953 
	C299.201477,206.263702 299.443604,207.547516 299.328735,208.931473 
z"/>
<path fill="#DD9A9C" opacity="1.000000" stroke="none" 
	d="
M302.281403,170.431915 
	C302.609863,170.979065 303.012787,171.813110 303.143433,172.814423 
	C302.699371,172.227386 302.527618,171.473083 302.281403,170.431915 
z"/>
<path fill="#4C4B4C" opacity="1.000000" stroke="none" 
	d="
M335.314697,185.945892 
	C334.929565,185.265671 334.889893,184.497787 334.908997,183.348877 
	C335.198578,183.931305 335.429352,184.894775 335.314697,185.945892 
z"/>
<path fill="#4C4B4C" opacity="1.000000" stroke="none" 
	d="
M335.302277,179.921677 
	C334.931946,179.263199 334.898560,178.495285 334.919098,177.345200 
	C335.195099,177.912766 335.417175,178.862503 335.302277,179.921677 
z"/>
<path fill="#4C4B4C" opacity="1.000000" stroke="none" 
	d="
M335.141632,176.643036 
	C334.794678,176.274887 334.570740,175.508301 334.660095,174.671432 
	C335.070496,175.148956 335.167572,175.696777 335.141632,176.643036 
z"/>
<path fill="#564C4B" opacity="1.000000" stroke="none" 
	d="
M298.285828,210.917496 
	C298.096039,210.401276 298.231537,209.786102 298.690063,209.065918 
	C298.879089,209.580093 298.745087,210.199326 298.285828,210.917496 
z"/>
<path fill="#4C4B4C" opacity="1.000000" stroke="none" 
	d="
M329.939667,196.858231 
	C329.939667,196.858231 330.039642,196.426041 330.323242,196.217453 
	C330.606873,196.008865 330.959717,195.961594 330.959717,195.961594 
	C330.959717,195.961594 331.113312,196.098755 331.193298,196.165833 
	C331.024902,196.784012 330.776459,197.335083 330.247192,197.695145 
	C329.957458,197.288834 329.948547,197.073532 329.939667,196.858231 
z"/>
<path fill="#5D4E4C" opacity="1.000000" stroke="none" 
	d="
M315.998566,211.235413 
	C316.052673,210.996674 316.242798,210.928009 316.731293,210.913483 
	C316.731293,211.113586 316.432922,211.259552 315.998566,211.235413 
z"/>
<path fill="#564C4B" opacity="1.000000" stroke="none" 
	d="
M297.225464,211.989960 
	C297.126312,211.635284 297.267822,211.280991 297.702576,210.942108 
	C298.031525,211.134583 298.067291,211.311646 298.025055,211.748016 
	C297.947083,212.007355 297.466095,211.990326 297.225464,211.989960 
z"/>
<path fill="#5D4E4C" opacity="1.000000" stroke="none" 
	d="
M329.709961,196.989700 
	C329.948547,197.073532 329.957458,197.288834 329.967224,197.828186 
	C329.785950,198.239655 329.603760,198.327057 329.195312,198.212738 
	C329.139435,197.714401 329.309845,197.417786 329.709961,196.989700 
z"/>
<path fill="#5D5555" opacity="1.000000" stroke="none" 
	d="
M295.500183,147.526550 
	C294.238281,147.860611 292.951904,147.860611 291.665558,147.860611 
	C291.359741,148.278595 291.053955,148.696579 290.748169,149.114563 
	C291.899384,149.335922 293.050598,149.557281 294.201813,149.778656 
	C293.885681,150.098419 293.569550,150.418182 293.253448,150.737946 
	C290.503082,150.737946 287.752747,150.737946 284.680176,150.817932 
	C287.342957,147.609741 292.615997,145.852295 295.500183,147.526550 
z"/>
<path fill="#595454" opacity="1.000000" stroke="none" 
	d="
M302.309448,158.781799 
	C301.531830,159.039688 301.023193,159.074371 300.137268,159.182953 
	C299.760010,159.256851 299.787659,159.200439 299.865723,158.891235 
	C299.965698,158.387527 299.987579,158.193008 300.009430,157.998505 
	C300.541534,157.108154 301.268127,156.276581 301.559265,155.313385 
	C301.976318,153.933441 302.075470,152.457382 302.670410,151.010147 
	C302.915558,153.635010 302.001648,156.888824 307.265991,155.813629 
	C307.803589,155.838303 308.147400,156.126724 308.147400,156.126740 
	C306.291077,156.937347 304.434753,157.747955 302.309448,158.781799 
z"/>
<path fill="#594C4B" opacity="1.000000" stroke="none" 
	d="
M299.897644,157.679932 
	C299.987579,158.193008 299.965698,158.387527 299.890747,158.872223 
	C297.934143,158.398636 296.030548,157.634857 294.020844,156.479492 
	C293.914703,156.087906 294.219788,155.775253 294.219788,155.775253 
	C298.726654,156.585861 299.601166,154.717438 297.889038,150.447479 
	C298.566223,152.456024 299.176056,154.908691 299.897644,157.679932 
z"/>
<path fill="#544848" opacity="1.000000" stroke="none" 
	d="
M315.907288,149.666580 
	C313.549988,150.380737 311.064178,150.731812 308.578369,151.082901 
	C308.505096,150.821304 308.431854,150.559708 308.358582,150.298096 
	C309.077087,149.750198 309.795563,149.202286 310.563660,148.330688 
	C312.335114,148.439148 314.056946,148.871338 315.907288,149.666580 
z"/>
<path fill="#595454" opacity="1.000000" stroke="none" 
	d="
M310.054932,147.515533 
	C308.705872,147.965225 307.282410,148.064163 305.431000,148.101776 
	C306.311523,145.755249 307.909363,145.114990 310.054932,147.515533 
z"/>
<path fill="#544848" opacity="1.000000" stroke="none" 
	d="
M322.009155,152.934418 
	C321.174500,153.353058 320.212158,153.383087 318.734833,153.320953 
	C318.084015,153.098434 317.948212,152.968063 317.812378,152.837708 
	C317.812378,152.837708 317.818665,152.392548 317.897644,152.184448 
	C319.278259,152.166183 320.579834,152.356003 322.009155,152.934418 
z"/>
<path fill="#544848" opacity="1.000000" stroke="none" 
	d="
M318.112183,151.670959 
	C317.384308,151.549835 316.749451,151.062317 316.036011,150.279602 
	C316.706665,150.424438 317.455933,150.864502 318.112183,151.670959 
z"/>
<path fill="#594C4B" opacity="1.000000" stroke="none" 
	d="
M297.957947,149.726898 
	C297.483551,149.701309 296.974945,149.355682 296.727875,148.792068 
	C297.300873,148.851669 297.612274,149.129272 297.957947,149.726898 
z"/>
<path fill="#595454" opacity="1.000000" stroke="none" 
	d="
M304.712097,148.087494 
	C304.920868,148.629166 304.800842,149.257339 304.345276,149.955475 
	C304.134308,149.408295 304.258789,148.791138 304.712097,148.087494 
z"/>
<path fill="#595454" opacity="1.000000" stroke="none" 
	d="
M303.706329,149.967331 
	C303.884613,150.340729 303.742279,150.677261 303.300720,151.022110 
	C303.129578,150.663773 303.257660,150.297119 303.706329,149.967331 
z"/>
<path fill="#575B5B" opacity="1.000000" stroke="none" 
	d="
M266.706848,169.672699 
	C267.020020,170.678024 266.990234,171.853485 266.987457,173.891296 
	C267.043030,175.312134 267.071594,175.870605 267.100159,176.429092 
	C267.110443,179.687073 267.120789,182.945053 267.086548,186.608307 
	C266.596497,184.736008 265.828064,182.465088 265.781097,180.179337 
	C265.710419,176.739273 266.144409,173.288834 266.706848,169.672699 
z"/>
<path fill="#534C4C" opacity="1.000000" stroke="none" 
	d="
M274.962860,199.527100 
	C276.005829,201.559219 277.064362,203.890564 278.077087,206.623138 
	C277.018890,204.622818 272.367004,203.764862 274.962860,199.527100 
z"/>
<path fill="#534C4C" opacity="1.000000" stroke="none" 
	d="
M285.076111,211.346359 
	C286.954193,211.980042 289.980042,207.980728 291.163971,212.647629 
	C289.092407,212.581329 287.138031,212.150970 285.076111,211.346359 
z"/>
<path fill="#534C4C" opacity="1.000000" stroke="none" 
	d="
M279.011475,208.344025 
	C280.333466,207.705017 281.691223,207.439865 283.451599,207.029144 
	C283.854279,206.883560 284.173950,207.144897 284.173950,207.144897 
	C284.134827,207.865356 284.095703,208.585831 284.040771,209.667206 
	C282.365753,209.591354 280.706482,209.154617 279.011475,208.344025 
z"/>
<path fill="#534C4C" opacity="1.000000" stroke="none" 
	d="
M291.076721,213.266388 
	C292.080841,213.042236 293.170502,213.131836 294.673706,213.274323 
	C294.608154,214.152985 294.129028,214.978760 293.371735,215.897491 
	C292.449799,215.187012 291.806000,214.383560 291.076721,213.266388 
z"/>
<path fill="#E5A0A1" opacity="1.000000" stroke="none" 
	d="
M273.335724,198.852768 
	C273.356567,198.337601 273.686707,197.895142 274.016876,197.452667 
	C274.304077,197.760574 274.591278,198.068481 274.895874,198.653076 
	C274.490540,198.928329 274.067810,198.926895 273.335724,198.852768 
z"/>
<path fill="#575B5B" opacity="1.000000" stroke="none" 
	d="
M267.062866,187.203461 
	C267.422150,187.374756 267.863831,187.791504 268.471558,188.357666 
	C268.140167,188.154358 267.642700,187.801620 267.062866,187.203461 
z"/>
<path fill="#534C4C" opacity="1.000000" stroke="none" 
	d="
M283.919128,210.302139 
	C284.299988,210.131790 284.627197,210.294189 284.995026,210.738281 
	C284.645599,210.891586 284.255524,210.763245 283.919128,210.302139 
z"/>
<path fill="#534C4C" opacity="1.000000" stroke="none" 
	d="
M277.959473,207.288620 
	C278.314545,207.119751 278.645325,207.275574 279.004822,207.724854 
	C278.667419,207.883331 278.301270,207.748322 277.959473,207.288620 
z"/>
<path fill="#575B5B" opacity="1.000000" stroke="none" 
	d="
M267.825623,168.367004 
	C267.869781,168.533585 267.681519,168.876175 267.246033,169.379883 
	C267.196930,169.208328 267.395050,168.875671 267.825623,168.367004 
z"/>
<path fill="#D94E4A" opacity="1.000000" stroke="none" 
	d="
M323.733307,135.607239 
	C325.474182,131.161743 327.420197,126.986938 329.551270,122.415184 
	C342.314514,129.053192 351.009827,138.787018 357.370087,151.031189 
	C360.692047,149.579529 363.658630,148.283173 367.278076,146.701523 
	C366.862396,159.785126 363.008514,170.813995 356.001434,180.183624 
	C349.434265,174.017288 342.971649,167.949173 336.482513,161.856110 
	C338.264282,160.875153 340.930695,159.407120 343.923279,157.759521 
	C339.574280,148.039276 332.632568,141.174240 323.733307,135.607239 
z"/>
<path fill="#D94E4A" opacity="1.000000" stroke="none" 
	d="
M267.832550,155.183304 
	C265.388519,153.818787 262.944489,152.454285 260.050079,150.838318 
	C253.413010,159.225571 251.517319,169.161880 250.803650,179.821655 
	C246.049927,180.099808 241.499252,180.366074 236.504288,180.658325 
	C236.070908,166.564484 239.897293,154.134903 247.492645,142.325027 
	C244.587143,140.272690 241.916595,138.386307 238.571594,136.023514 
	C249.969177,129.893082 261.458038,127.738762 272.964752,129.100601 
	C271.403473,137.553497 269.888550,145.755386 268.204407,154.466080 
	C268.035248,154.974884 267.832550,155.183304 267.832550,155.183304 
z"/>
<path fill="#D94E4A" opacity="1.000000" stroke="none" 
	d="
M268.139160,154.873260 
	C268.305725,155.011459 268.368347,155.251297 268.430939,155.491150 
	C268.296783,155.482040 268.162628,155.472931 267.930511,155.323563 
	C267.832550,155.183304 268.035248,154.974884 268.139160,154.873260 
z"/>
<path fill="#D94E4A" opacity="1.000000" stroke="none" 
	d="
M290.967163,250.995667 
	C281.629486,244.203308 274.470215,236.102432 270.423553,226.085724 
	C278.960052,223.530197 287.276794,221.040451 295.743958,218.505676 
	C295.743958,220.428757 295.743958,223.283905 295.743958,226.597260 
	C306.620026,228.262222 316.045227,225.171249 325.681702,220.050354 
	C328.252869,224.019897 330.807495,227.963928 333.598053,232.272186 
	C323.519043,238.397644 313.176636,241.569839 301.989471,241.917679 
	C294.508972,242.150253 294.506775,242.051025 294.116730,249.412796 
	C294.073029,250.237930 294.012207,251.062149 293.930420,252.336899 
	C292.874512,251.880814 292.069611,251.533173 290.967163,250.995667 
z"/>
<path fill="#E8A2A3" opacity="1.000000" stroke="none" 
	d="
M299.493652,166.262054 
	C298.761871,167.545395 298.103638,169.853882 297.284058,169.912643 
	C295.148102,170.065796 292.469269,169.716095 293.146240,165.788864 
	C292.997192,165.376572 292.981140,165.424149 292.966309,165.443878 
	C294.589447,165.321762 296.227386,165.179916 298.380981,165.287079 
	C299.020508,165.839859 299.219513,166.081848 299.493652,166.262054 
z"/>
<path fill="#5A4544" opacity="1.000000" stroke="none" 
	d="
M267.443451,176.269531 
	C267.071594,175.870605 267.043030,175.312134 267.012024,174.334351 
	C269.246094,173.915039 271.482574,173.915039 274.921448,173.915039 
	C273.500763,172.148270 272.731628,171.191788 271.759186,169.982483 
	C273.273041,170.123871 274.641022,170.251633 275.823456,170.362061 
	C275.607605,173.067261 275.415955,175.469421 275.145966,178.400253 
	C275.067657,178.928909 274.813507,179.164932 274.813507,179.164932 
	C273.610352,175.526535 271.508331,173.955673 267.443451,176.269531 
z"/>
<path fill="#E5A0A1" opacity="1.000000" stroke="none" 
	d="
M290.515869,190.206390 
	C289.889618,189.610535 289.478424,188.790771 289.067200,187.970993 
	C289.493317,187.832840 289.919403,187.694687 290.345490,187.556549 
	C290.473969,188.365189 290.602417,189.173843 290.515869,190.206390 
z"/>
<path fill="#584442" opacity="1.000000" stroke="none" 
	d="
M279.173157,165.841797 
	C279.746307,167.173599 280.319427,168.505402 280.892578,169.837204 
	C280.344360,170.043045 279.796143,170.248886 279.247894,170.454727 
	C279.121277,169.333969 278.994659,168.213196 278.886841,166.604935 
	C278.905609,166.117432 279.173157,165.841797 279.173157,165.841797 
z"/>
<path fill="#584442" opacity="1.000000" stroke="none" 
	d="
M278.541199,163.386749 
	C278.736420,162.171097 278.931641,160.955429 279.185120,159.376846 
	C279.923645,160.439255 280.490387,161.254578 281.090088,162.478088 
	C281.123047,162.886261 280.854828,163.161743 280.854828,163.161743 
	C280.416016,163.404495 279.977203,163.647263 279.172058,163.807083 
	C278.805695,163.724136 278.541199,163.386749 278.541199,163.386749 
z"/>
<path fill="#534C4C" opacity="1.000000" stroke="none" 
	d="
M283.692505,206.755280 
	C283.592957,205.441422 283.655151,204.255875 283.717346,203.070312 
	C284.170441,203.095520 284.623505,203.120728 285.076599,203.145950 
	C284.946198,204.337479 284.815796,205.529022 284.429688,206.932739 
	C284.173950,207.144897 283.854279,206.883560 283.692505,206.755280 
z"/>
<path fill="#594C4B" opacity="1.000000" stroke="none" 
	d="
M291.838776,163.168594 
	C291.008209,162.436371 290.177643,161.704163 289.347076,160.971954 
	C289.619446,160.699738 289.891846,160.427521 290.164246,160.155304 
	C290.833466,160.777054 291.502716,161.398788 292.169830,162.425537 
	C292.167694,162.830566 291.838776,163.168594 291.838776,163.168594 
z"/>
<path fill="#584442" opacity="1.000000" stroke="none" 
	d="
M278.935547,163.894684 
	C279.088959,164.460007 279.112518,164.854813 279.154602,165.545700 
	C279.173157,165.841797 278.905609,166.117432 278.774139,166.260498 
	C277.489471,165.872116 276.336304,165.340652 275.054565,164.449783 
	C274.926056,164.090378 275.169434,163.802933 275.169434,163.802933 
	C276.082458,163.740509 276.995453,163.678085 278.224854,163.501205 
	C278.541199,163.386749 278.805695,163.724136 278.935547,163.894684 
z"/>
<path fill="#5A4544" opacity="1.000000" stroke="none" 
	d="
M274.635132,181.660049 
	C274.706818,181.038498 274.778473,180.416962 274.831818,179.480164 
	C274.813507,179.164932 275.067657,178.928909 275.193909,178.806107 
	C276.086395,179.209503 276.852692,179.735703 277.854523,180.423645 
	C277.111328,180.946472 276.443298,181.416458 275.352875,181.909851 
	C274.930511,181.933273 274.635132,181.660049 274.635132,181.660049 
z"/>
<path fill="#E5A0A1" opacity="1.000000" stroke="none" 
	d="
M287.955261,172.565460 
	C287.730286,172.194962 287.732605,171.826981 287.761444,171.461105 
	C287.762207,171.450958 288.047394,171.463242 288.199951,171.465057 
	C288.195374,171.832794 288.190826,172.200546 287.955261,172.565460 
z"/>
<path fill="#E5A0A1" opacity="1.000000" stroke="none" 
	d="
M285.636963,185.564392 
	C286.056091,185.673508 286.310028,185.940170 286.563934,186.206848 
	C286.453461,186.311844 286.252502,186.514206 286.245636,186.507797 
	C285.976624,186.257706 285.725342,185.988586 285.636963,185.564392 
z"/>
<path fill="#E5A0A1" opacity="1.000000" stroke="none" 
	d="
M284.776855,189.370956 
	C285.008606,189.323608 285.141418,189.381897 285.274231,189.440186 
	C285.075470,189.452316 284.876678,189.464447 284.776855,189.370956 
z"/>
<path fill="#584442" opacity="1.000000" stroke="none" 
	d="
M274.806824,164.236145 
	C274.107208,164.090622 273.526855,163.799301 272.823975,163.198608 
	C272.701477,162.889206 272.776093,162.927353 272.776428,162.885727 
	C273.432526,162.991348 274.088318,163.138580 274.956787,163.544373 
	C275.169434,163.802933 274.926056,164.090378 274.806824,164.236145 
z"/>
<path fill="#E5A0A1" opacity="1.000000" stroke="none" 
	d="
M285.758484,164.587677 
	C285.813873,164.402420 285.947174,164.340057 286.080475,164.277679 
	C285.999115,164.421982 285.917755,164.566269 285.758484,164.587677 
z"/>
<path fill="#584442" opacity="1.000000" stroke="none" 
	d="
M282.180481,166.698761 
	C282.368561,166.416000 282.734985,166.347260 283.101410,166.278503 
	C282.853882,166.489914 282.606354,166.701355 282.180481,166.698761 
z"/>
<path fill="#5A4544" opacity="1.000000" stroke="none" 
	d="
M275.078796,182.069214 
	C274.957703,182.577911 274.688324,182.950684 274.418945,183.323456 
	C274.359955,182.879959 274.300934,182.436478 274.438538,181.826508 
	C274.635132,181.660049 274.930511,181.933273 275.078796,182.069214 
z"/>
<path fill="#594C4B" opacity="1.000000" stroke="none" 
	d="
M292.835083,155.146759 
	C292.750366,154.944290 292.665680,154.741821 292.580994,154.539352 
	C292.703430,154.562195 292.825867,154.585037 292.959198,154.816284 
	C292.970123,155.024673 292.835083,155.146759 292.835083,155.146759 
z"/>
<path fill="#594C4B" opacity="1.000000" stroke="none" 
	d="
M293.035278,154.961090 
	C293.400787,155.032150 293.701172,155.166809 294.110657,155.538361 
	C294.219788,155.775253 293.914703,156.087906 293.760284,156.244995 
	C293.359894,156.157608 293.113953,155.913132 292.851562,155.407700 
	C292.835083,155.146759 292.970123,155.024673 293.035278,154.961090 
z"/>
<path fill="#584442" opacity="1.000000" stroke="none" 
	d="
M281.260712,162.752060 
	C281.297699,162.917389 281.197052,163.216934 280.975586,163.339111 
	C280.854828,163.161743 281.123047,162.886261 281.260712,162.752060 
z"/>
<path fill="#594C4B" opacity="1.000000" stroke="none" 
	d="
M292.340088,162.669678 
	C292.779968,162.685730 293.003265,162.907181 293.304565,163.376617 
	C293.304810,163.700912 293.182983,163.821732 292.877502,164.123596 
	C292.382477,164.163025 292.151276,163.938782 291.919495,163.400238 
	C291.838776,163.168594 292.167694,162.830566 292.340088,162.669678 
z"/>
<path fill="#634B49" opacity="1.000000" stroke="none" 
	d="
M314.833252,174.181000 
	C313.560944,173.309235 312.360779,172.290649 310.990875,171.617538 
	C310.083466,171.171692 308.932800,171.220993 307.544678,170.672150 
	C307.255402,169.912720 307.312439,169.529739 307.369476,169.146774 
	C307.403992,167.939560 307.438538,166.732330 307.245789,165.012741 
	C307.013428,164.319870 307.008331,164.139359 307.003204,163.958862 
	C307.003204,163.958862 307.297516,163.841324 307.805725,163.897110 
	C308.548248,163.968658 308.782562,163.984436 309.016876,164.000198 
	C309.488556,164.939758 309.960236,165.879318 310.431915,166.818878 
	C311.692230,165.944153 312.952576,165.069427 314.627258,164.116272 
	C315.041656,164.037842 315.344666,164.340134 315.344666,164.340134 
	C314.831787,166.922989 313.775970,169.773651 318.380524,169.513916 
	C317.071686,170.897964 316.115570,171.908981 315.153748,173.390686 
	C315.148071,173.861343 314.833252,174.181000 314.833252,174.181000 
z"/>
<path fill="#634B49" opacity="1.000000" stroke="none" 
	d="
M314.228027,186.854202 
	C314.738739,184.473862 315.249451,182.093521 315.790955,179.569733 
	C316.570038,180.251129 317.615570,181.165527 319.481689,182.797607 
	C319.974365,179.940613 320.315552,177.961960 320.735382,175.527390 
	C321.889465,177.107452 322.927307,178.528366 323.852081,179.794495 
	C322.880341,180.893707 321.720215,182.206024 320.560089,183.518341 
	C320.487579,183.392319 320.415070,183.266281 320.342560,183.140259 
	C318.489502,184.292465 316.636414,185.444687 314.486572,186.765045 
	C314.189819,186.933212 314.227997,186.854202 314.228027,186.854202 
z"/>
<path fill="#DF9C9D" opacity="1.000000" stroke="none" 
	d="
M309.111267,187.045807 
	C309.533539,186.751495 309.920502,186.864792 310.611481,186.973480 
	C311.742126,186.960449 312.568756,186.952011 313.811707,186.898895 
	C314.227997,186.854202 314.189819,186.933212 314.193634,186.897110 
	C314.980225,187.791306 315.763000,188.721588 317.148132,190.367767 
	C313.426086,190.428223 310.312592,191.742294 309.111267,187.045807 
z"/>
<path fill="#DF9C9D" opacity="1.000000" stroke="none" 
	d="
M305.991089,192.899429 
	C305.708923,192.471649 305.768005,192.087082 305.748871,191.418274 
	C308.976349,190.629562 310.698883,191.587860 309.639008,195.377380 
	C308.432434,194.488953 307.382385,193.715790 305.991089,192.899429 
z"/>
<path fill="#544848" opacity="1.000000" stroke="none" 
	d="
M314.187531,155.801407 
	C314.497162,155.793503 314.792908,155.725357 315.456696,155.718719 
	C315.838623,155.840454 316.159882,156.148087 316.159882,156.148087 
	C316.794037,156.587860 317.428162,157.027618 318.062317,157.467392 
	C318.016541,157.717819 317.970795,157.968246 317.925018,158.218674 
	C316.596283,157.810013 315.267548,157.401352 313.906128,156.555542 
	C313.873474,156.118423 314.187531,155.801407 314.187531,155.801407 
z"/>
<path fill="#554645" opacity="1.000000" stroke="none" 
	d="
M310.044250,159.943390 
	C311.459747,160.326004 312.875214,160.708603 315.260529,161.353348 
	C313.319946,161.806885 312.254883,162.055801 310.693848,162.245392 
	C310.197815,162.186081 309.865784,161.873550 309.865784,161.873550 
	C309.898193,161.555496 309.820496,161.267105 309.711121,160.637543 
	C309.789581,160.266693 310.044250,159.943405 310.044250,159.943390 
z"/>
<path fill="#554645" opacity="1.000000" stroke="none" 
	d="
M306.619080,163.911087 
	C307.008331,164.139359 307.013428,164.319870 307.010681,164.771149 
	C305.938202,165.018112 304.873566,164.994308 303.411072,165.006699 
	C303.036896,164.761902 303.060608,164.480896 303.139404,163.779083 
	C304.207947,163.526611 305.221466,163.694962 306.619080,163.911087 
z"/>
<path fill="#DD9A9C" opacity="1.000000" stroke="none" 
	d="
M307.036987,169.134155 
	C307.312439,169.529739 307.255402,169.912720 307.270630,170.579681 
	C306.755188,170.681305 306.167450,170.498932 305.579681,170.316559 
	C305.954620,169.918228 306.329559,169.519882 307.036987,169.134155 
z"/>
<path fill="#5D4E4C" opacity="1.000000" stroke="none" 
	d="
M330.978790,195.631912 
	C330.959717,195.961594 330.606873,196.008865 330.429382,196.022705 
	C330.205414,195.276184 330.158936,194.515793 330.078217,193.374786 
	C330.361938,193.763504 330.679901,194.532867 330.978790,195.631912 
z"/>
<path fill="#554645" opacity="1.000000" stroke="none" 
	d="
M309.649719,160.417633 
	C309.163940,160.235809 308.817993,159.903046 308.472015,159.570282 
	C308.903687,159.551788 309.335358,159.533279 309.905640,159.729095 
	C310.044250,159.943405 309.789581,160.266693 309.649719,160.417633 
z"/>
<path fill="#5D4E4C" opacity="1.000000" stroke="none" 
	d="
M315.037964,205.039551 
	C314.680389,205.348099 314.186218,205.494034 313.692047,205.639984 
	C313.847870,205.337860 314.003662,205.035721 314.395996,204.640839 
	C314.632538,204.548096 314.901367,204.876938 315.037964,205.039551 
z"/>
<path fill="#544848" opacity="1.000000" stroke="none" 
	d="
M316.503143,154.487061 
	C316.796021,154.042496 317.088928,153.597946 317.597107,152.995544 
	C317.948212,152.968063 318.084015,153.098434 318.396973,153.453232 
	C318.239075,154.079575 317.904053,154.481491 317.183838,154.829529 
	C316.798676,154.775650 316.503143,154.487061 316.503143,154.487061 
z"/>
<path fill="#5D4E4C" opacity="1.000000" stroke="none" 
	d="
M316.664703,203.680267 
	C316.740173,203.005188 317.028564,202.537949 317.694519,202.068115 
	C318.072113,202.065506 318.365753,202.355408 318.365784,202.355408 
	C318.157379,202.875885 317.949005,203.396362 317.528625,204.103287 
	C317.170319,204.155869 317.023956,204.021988 316.664703,203.680267 
z"/>
<path fill="#595454" opacity="1.000000" stroke="none" 
	d="
M307.636902,155.688019 
	C307.888123,155.234909 308.306000,154.932068 308.723877,154.629227 
	C308.696228,155.044235 308.668579,155.459259 308.394165,156.000488 
	C308.147400,156.126724 307.803589,155.838303 307.636902,155.688019 
z"/>
<path fill="#544848" opacity="1.000000" stroke="none" 
	d="
M316.936890,154.929108 
	C317.025391,155.424957 316.867157,155.706345 316.380188,156.037415 
	C316.159882,156.148087 315.838623,155.840454 315.682007,155.677979 
	C315.698395,155.245712 315.899658,154.998978 316.316162,154.631195 
	C316.503143,154.487061 316.798676,154.775650 316.936890,154.929108 
z"/>
<path fill="#544848" opacity="1.000000" stroke="none" 
	d="
M313.711975,156.272369 
	C313.425507,156.023010 313.300537,155.619720 313.175568,155.216431 
	C313.425751,155.231689 313.675903,155.246933 314.056824,155.531799 
	C314.187531,155.801407 313.873474,156.118423 313.711975,156.272369 
z"/>
<path fill="#554645" opacity="1.000000" stroke="none" 
	d="
M308.833252,162.844299 
	C309.018066,162.574936 309.202881,162.305573 309.626770,161.954880 
	C309.865784,161.873550 310.197815,162.186081 310.356079,162.354980 
	C310.339050,162.784500 310.116028,162.994431 309.482361,163.122009 
	C309.119476,163.090363 308.833221,162.844299 308.833252,162.844299 
z"/>
<path fill="#554645" opacity="1.000000" stroke="none" 
	d="
M309.143463,163.848907 
	C308.782562,163.984436 308.548248,163.968658 307.963135,163.915543 
	C307.850769,163.603363 308.089233,163.328537 308.580444,162.949005 
	C308.833221,162.844299 309.119476,163.090363 309.267456,163.210632 
	C309.415466,163.330917 309.270050,163.697632 309.143463,163.848907 
z"/>
<path fill="#634B49" opacity="1.000000" stroke="none" 
	d="
M314.890869,163.885986 
	C315.053467,163.573196 315.366913,163.412262 315.680328,163.251328 
	C315.702057,163.497528 315.723785,163.743744 315.545105,164.165039 
	C315.344666,164.340134 315.041656,164.037842 314.890869,163.885986 
z"/>
<path fill="#5D4C4B" opacity="1.000000" stroke="none" 
	d="
M309.041687,204.966888 
	C309.382294,205.144882 309.555420,205.488846 309.728546,205.832809 
	C309.471283,205.851395 309.214020,205.869995 308.754089,205.682663 
	C308.551392,205.476746 308.874176,205.132874 309.041687,204.966888 
z"/>
<path fill="#634B49" opacity="1.000000" stroke="none" 
	d="
M315.312744,173.709015 
	C315.596863,173.902588 315.716278,174.248459 315.835693,174.594330 
	C315.594360,174.605331 315.352997,174.616348 314.972473,174.404175 
	C314.833252,174.181000 315.148071,173.861343 315.312744,173.709015 
z"/>
<path fill="#5D4E4C" opacity="1.000000" stroke="none" 
	d="
M317.927063,201.918762 
	C318.010162,201.590027 318.238342,201.408066 318.466522,201.226105 
	C318.537659,201.489182 318.608826,201.752243 318.522858,202.185364 
	C318.365753,202.355408 318.072113,202.065506 317.927063,201.918762 
z"/>
<path fill="#554645" opacity="1.000000" stroke="none" 
	d="
M299.719788,166.120728 
	C299.219513,166.081848 299.020508,165.839859 298.793182,165.321655 
	C299.108459,165.397980 299.527161,165.688690 299.719788,166.120728 
z"/>
</svg>